<svg width="1442" height="876" viewBox="0 0 1442 876" fill="none" xmlns="http://www.w3.org/2000/svg">
<g clip-path="url(#clip0_284_1124)">
<rect width="1443" height="876" fill="#24A19C"/>
<g opacity="0.05">
<path d="M-64.1877 737.968C-59.1564 600.548 10.4374 500.366 66.3583 419.864L70.3307 414.152C76.8178 405.557 91.7845 382.562 90.608 354.787C89.8916 337.883 83.2399 322.578 70.8407 309.314C63.405 301.361 56.5267 293.929 49.9854 286.858C21.0583 255.599 -1.78763 230.906 -37.2614 199.94C-50.2219 188.632 -62.9765 177.926 -75.4297 167.865V169.447C-63.1701 179.365 -50.616 189.911 -37.8655 201.041C-2.43748 231.967 20.3907 256.637 49.2941 287.874C55.8365 294.945 62.7151 302.381 70.1523 310.334C82.3217 323.353 88.8492 338.333 89.5472 354.858C90.7004 382.117 75.9535 404.76 69.5453 413.247L65.5563 418.991C9.52738 499.639 -60.2003 600.022 -65.2482 737.91C-65.7874 752.596 -70.3251 761.578 -75.4297 764.63V766.221C-69.9075 763.36 -64.7864 754.262 -64.1877 737.968Z" fill="white"/>
<path d="M-39.4388 739.407C-34.806 612.867 31.63 517.234 85.0139 440.39L89.0025 434.647C100.21 418.5 109.293 404.193 115.994 392.123C124.298 377.166 139.757 349.328 103.253 304.965C63.8917 257.122 21.3655 213.164 -23.1449 174.312C-41.2945 158.468 -58.7637 144.188 -75.4297 131.365V132.925C-58.9504 145.628 -41.6857 159.756 -23.749 175.408C20.7143 214.22 63.1962 258.133 102.518 305.927C138.366 349.498 123.246 376.73 115.123 391.357C108.443 403.387 99.3859 417.658 88.2036 433.769L84.2118 439.517C30.7214 516.512 -35.8498 612.341 -40.4994 739.345C-42.6577 798.251 -50.9644 832.527 -66.6432 847.221C-69.7458 850.126 -72.6852 851.708 -75.4297 852.087V853.428C-72.446 853.062 -69.3559 851.427 -66.0113 848.291C-50.0547 833.347 -41.6124 798.745 -39.4388 739.407Z" fill="white"/>
<path d="M392.582 -165.672C385.704 -199.868 330.205 -209.011 265.945 -219.597C250.065 -222.212 233.646 -224.917 217.697 -228.085C147.241 -242.084 82.7422 -286.608 20.3671 -329.666C-10.8674 -351.23 -42.778 -373.245 -75.4297 -391.352V-387.952C-43.2121 -369.997 -11.6886 -348.236 19.1767 -326.93C81.737 -283.743 146.428 -239.09 217.31 -225.006C233.292 -221.834 249.727 -219.125 265.624 -216.505C326.354 -206.498 383.715 -197.052 390.178 -164.906C395.219 -139.861 369.306 -101.869 310.961 -48.7555C229.104 25.7672 160.416 60.4755 94.7973 60.4755C57.5082 60.471 20.5331 48.8199 -15.0996 25.8384C-37.2766 11.5363 -56.7949 -5.86245 -75.4297 -23.4171V-19.523C-57.1571 -2.36489 -37.9901 14.5794 -16.2291 28.6142C19.7575 51.8229 57.1115 63.5898 94.7959 63.5898C94.7998 63.5898 94.7998 63.5898 94.8041 63.5898C160.968 63.5898 230.117 28.6944 312.416 -46.2292C372.499 -100.925 397.969 -138.877 392.582 -165.672Z" fill="white"/>
<path d="M-66.2505 537.607C-56.7119 516.483 -44.3473 497.329 -32.3889 478.803C-15.1396 452.079 2.69725 424.45 12.297 390.5C29.2242 330.635 -3.95415 302.976 -39.081 273.694C-42.3203 270.994 -45.5792 268.276 -48.8518 265.487C-54.6408 260.56 -60.109 255.904 -65.4943 251.207C-68.1406 248.895 -71.4008 245.936 -75.4297 242.247V243.896C-71.6966 247.313 -68.6079 250.116 -66.0985 252.303C-60.7076 257.008 -55.2381 261.664 -49.4118 266.623C-46.1709 269.386 -42.9093 272.104 -39.6671 274.808C-4.89742 303.796 27.9454 331.175 11.2971 390.054C1.75716 423.787 -16.0202 451.326 -33.2132 477.961C-45.1989 496.527 -57.5899 515.726 -67.1741 536.943C-70.043 543.296 -72.6645 551.557 -75.4297 560.312V563.921C-75.1421 563.012 -74.8518 562.103 -74.5669 561.203C-71.7685 552.337 -69.125 543.969 -66.2505 537.607Z" fill="white"/>
<path d="M20.2276 439.515C21.8104 437.14 23.4198 434.761 25.0377 432.364C47.8217 398.627 71.3783 363.74 44.6029 322.023C23.8913 289.757 -7.36657 263.148 -34.9469 239.677C-40.6626 234.811 -46.0603 230.213 -51.3778 225.575C-54.9463 222.461 -59.78 218.019 -65.3768 212.877C-68.4517 210.052 -71.8307 206.947 -75.4297 203.668V205.316C-72.0672 208.386 -68.8969 211.295 -66.0017 213.955C-60.4007 219.101 -55.5616 223.548 -51.982 226.671C-46.6603 231.318 -41.2585 235.917 -35.5415 240.782C-8.02456 264.204 23.1657 290.75 43.7775 322.861C70.0001 363.718 46.7308 398.177 24.2289 431.495C22.6096 433.896 20.9992 436.28 19.416 438.659C-0.36937 468.342 -25.6434 508.089 -45.6345 552.355C-57.771 579.23 -67.7659 607.469 -75.4297 636.443V640.832C-67.6636 610.552 -57.3645 581.039 -44.7122 553.019C-24.7628 508.847 0.471252 469.153 20.2276 439.515Z" fill="white"/>
<path d="M0.067749 -11.4398C26.9706 5.90988 49.8265 13.9922 71.9992 13.9922C95.2093 13.9922 115.847 5.21485 139.746 -4.94814C153.302 -10.7135 168.669 -17.2499 186.086 -22.7524C194.921 -25.5415 202.625 -25.8668 207.651 -25.8668C211.029 -25.8668 214.267 -25.7019 217.396 -25.5415C220.364 -25.3945 223.167 -25.2474 225.94 -25.2474C240.289 -25.2519 251.694 -29.5203 264.199 -50.7819C272.634 -65.1286 275.793 -76.2094 278.582 -85.9803C282.751 -100.603 286.043 -112.147 304.399 -128.668C309.106 -132.91 315.842 -136.243 322.362 -139.469C332.853 -144.664 341.914 -149.15 342.289 -156.751C342.59 -162.909 336.895 -169.784 324.354 -178.374C309.329 -188.639 287.891 -190.025 268.902 -190.025C260.432 -190.025 251.538 -189.695 242.938 -189.379C234.297 -189.058 225.36 -188.728 216.806 -188.728C197.742 -188.728 184.379 -190.39 173.48 -194.115C111.883 -215.172 54.129 -255.04 3.17435 -290.216C-23.5707 -308.679 -49.5224 -326.568 -75.4297 -341.944V-339.48C-49.8141 -324.229 -24.1349 -306.527 2.32558 -288.26C53.3659 -253.026 111.216 -213.091 173.017 -191.968C184.074 -188.185 197.58 -186.501 216.806 -186.501C225.386 -186.501 234.336 -186.831 242.991 -187.151C251.578 -187.468 260.459 -187.797 268.902 -187.797C287.668 -187.797 308.834 -186.443 323.509 -176.418C335.047 -168.509 340.771 -161.942 340.523 -156.894C340.218 -150.705 331.228 -146.254 321.714 -141.545C315.095 -138.266 308.253 -134.879 303.369 -130.477C284.564 -113.555 281.021 -101.125 276.914 -86.7333C274.169 -77.1049 271.056 -66.189 262.775 -52.1096C250.714 -31.601 239.739 -27.4796 225.94 -27.4752C223.204 -27.4752 220.418 -27.6178 217.469 -27.7693C214.319 -27.9297 211.065 -28.0945 207.651 -28.0945C202.531 -28.0945 194.682 -27.7648 185.655 -24.9132C168.171 -19.3884 152.769 -12.8388 139.179 -7.06004C115.43 3.04058 94.9173 11.7644 71.9992 11.7644C50.1181 11.7644 27.5178 3.76235 0.872276 -13.4225C-23.485 -29.137 -45.3911 -50.0378 -66.581 -70.2568C-69.5204 -73.0638 -72.4709 -75.8752 -75.4297 -78.6777V-75.893C-72.8276 -73.4247 -70.2338 -70.9474 -67.6456 -68.4791C-46.4004 -48.2066 -24.4308 -27.2435 0.067749 -11.4398Z" fill="white"/>
<path d="M286.702 474.544C290.638 474.544 293.905 476.589 296.407 480.634C304.562 493.778 302.962 524.347 300.293 537.794C287.303 603.192 259.448 626.432 217.274 661.617C206.736 670.403 196.531 680.517 186.659 690.292C174.654 702.184 162.239 714.481 149.203 724.417C141.261 730.467 134.492 732.994 130.301 731.457C128.437 730.779 127.109 729.336 126.348 727.153C124.539 721.958 126.028 712.85 130.539 701.516C142.644 671.094 162.949 645.27 182.586 620.296C185.928 616.046 189.231 611.849 192.444 607.683C216.323 576.735 237.55 548.527 255.505 516.679C256.975 514.069 258.655 510.566 260.432 506.86C266.829 493.511 275.591 475.234 285.934 474.566C286.192 474.553 286.447 474.544 286.702 474.544ZM259.523 506.169C257.756 509.854 256.086 513.338 254.636 515.904C236.728 547.672 215.531 575.844 191.684 606.752C188.473 610.913 185.172 615.11 181.833 619.356C162.136 644.401 141.77 670.3 129.589 700.914C124.866 712.784 123.409 722.038 125.375 727.687C126.269 730.249 127.828 731.951 130.007 732.74C130.908 733.07 131.915 733.234 133.006 733.234C137.376 733.234 143.168 730.579 149.752 725.558C162.844 715.582 175.286 703.258 187.316 691.339C197.171 681.582 207.361 671.486 217.869 662.726C260.242 627.372 288.238 604.02 301.323 538.115C304.035 524.454 305.627 493.319 297.246 479.81C294.358 475.154 290.574 472.967 285.877 473.234C274.973 473.933 266.045 492.562 259.523 506.169Z" fill="white"/>
<path d="M-14.3376 740.864C-10.1068 625.377 53.1199 534.356 103.924 461.224L107.928 455.458C168.344 368.402 165.891 338.002 137.546 302.795C106.465 264.197 57.4749 206.182 -8.82518 148.314C-31.4545 128.563 -53.8375 110.514 -75.4297 94.4426V97.0268C-54.1582 112.897 -32.121 130.697 -9.83605 150.145C56.355 207.92 105.269 265.841 136.302 304.381C163.83 338.573 166.072 368.286 106.595 453.997L102.592 459.758C51.6058 533.153 -11.8447 624.495 -16.1034 740.757C-20.102 849.89 -52.7521 881.929 -75.4297 890.925V893.26C-52.2267 884.353 -18.4122 852.153 -14.3376 740.864Z" fill="white"/>
<path d="M310.682 447.276C325.6 471.331 328.57 522.177 323.986 545.252C308.696 622.234 274.307 650.919 230.751 687.258C228.577 689.067 226.373 690.893 224.149 692.738C197.579 714.762 167.461 739.73 150.281 773.837C141.197 791.868 137.672 812.524 134.263 832.498C130.932 852.013 127.488 872.192 118.817 889.444C112.629 901.759 105.442 914.345 99.0571 914.345C94.1819 914.345 89.7009 906.914 85.3608 891.631C84.002 886.842 83.4087 882.07 83.5482 877.035C83.9563 862.185 90.8498 848.074 97.5168 834.436C103.281 822.642 108.723 811.504 110.274 799.951C112.737 781.581 109.659 764.093 106.682 747.18C102.993 726.217 99.5063 706.412 105.618 684.95C112.943 659.224 137.345 630.753 156.954 607.874C163.621 600.099 169.916 592.757 174.943 586.238C194.158 561.345 214.026 535.597 231.649 506.948C234.867 501.718 238.493 494.491 242.334 486.836C253.077 465.432 266.448 438.793 281.279 434.186C283.966 433.348 286.585 432.929 289.07 432.929C297.504 432.929 304.774 437.754 310.682 447.276ZM280.854 432.02C265.334 436.846 251.751 463.908 240.837 485.647C237.019 493.252 233.413 500.439 230.25 505.58C212.687 534.136 192.856 559.835 173.675 584.688C168.678 591.162 162.4 598.486 155.751 606.243C136 629.283 111.422 657.958 103.952 684.201C97.6704 706.269 101.373 727.313 104.954 747.661C107.893 764.365 110.933 781.639 108.528 799.572C107.038 810.706 101.681 821.662 96.0096 833.264C89.2227 847.157 82.2028 861.521 81.7785 876.959C81.6348 882.204 82.2789 887.399 83.6947 892.38C88.3821 908.887 93.2626 916.573 99.0571 916.573C104.896 916.573 111.052 909.061 120.313 890.638C129.151 873.052 132.628 852.677 135.993 832.966C139.371 813.179 142.862 792.724 151.774 775.031C168.753 741.325 198.7 716.504 225.123 694.6C227.348 692.756 229.553 690.925 231.743 689.102C275.605 652.514 310.246 623.611 325.703 545.791C329.791 525.194 328.719 472.739 312.076 445.908C303.992 432.871 293.373 428.131 280.854 432.02Z" fill="white"/>
<path d="M300.145 386.184C305.326 396.427 311.899 402.723 318.858 409.384C326.379 416.584 334.155 424.033 340.24 437.088C354.175 466.993 364.924 520.94 357.98 555.938C339.39 649.544 296.021 685.718 250.107 724.013C197.391 767.984 142.876 813.457 122.867 950.299C118.039 983.323 110.053 1000.78 99.7704 1000.78C83.6866 1000.78 64.1377 958.648 58.053 922.407C47.505 859.612 50.9893 784.75 68.4088 699.9C79.9606 643.631 113.042 602.587 145.036 562.893C161.673 542.256 178.874 520.909 192.733 497.767C196.094 492.153 201.439 484.615 207.629 475.882C228.005 447.14 255.913 407.775 251.039 384.255C249.286 375.807 245.124 367.391 240.716 358.484C236.202 349.364 231.536 339.927 229.869 330.726C227.754 319.057 231.045 316.995 233.948 315.181C235.552 314.174 237.212 313.136 237.615 310.686C238.154 307.42 236.506 302.43 226.64 287.673C221.038 279.297 205.187 268.59 189.861 258.231C173.764 247.355 155.517 235.022 153.996 227.925C150.545 211.814 151.631 205.46 153.149 202.965C153.959 201.633 155.146 200.987 156.773 200.987C172.244 200.987 217.153 256.44 254.02 308.333C254.477 308.979 254.738 309.3 254.751 309.313C261.656 315.912 267.735 317.547 273.099 318.986C280.681 321.022 287.229 322.782 295.101 337.053C298.849 343.848 298.216 352.019 297.55 360.667C296.881 369.36 296.184 378.347 300.145 386.184ZM297.136 335.275C288.705 319.989 281.375 318.019 273.617 315.939C268.257 314.495 262.714 313.007 256.392 306.992L255.868 306.257C237.805 280.829 177.273 197.868 156.773 197.868C154.354 197.868 152.474 198.942 151.181 201.067C148.442 205.567 148.581 214.621 151.606 228.74C153.405 237.139 170.543 248.719 188.69 260.98C203.811 271.197 219.448 281.765 224.744 289.687C229.498 296.793 235.753 306.64 235.189 310.048C235.037 310.975 234.24 311.514 232.845 312.388C229.683 314.366 224.903 317.36 227.452 331.417C229.213 341.134 233.991 350.789 238.614 360.133C242.918 368.834 246.984 377.05 248.64 385.043C253.181 406.942 224.655 447.184 205.781 473.806C199.553 482.588 194.178 490.175 190.756 495.887C177.006 518.855 159.87 540.112 143.298 560.67C111.064 600.663 77.7332 642.014 66.0098 699.12C48.4936 784.439 45.0012 859.781 55.6292 923.049C61.2966 956.813 80.8313 1003.89 99.7704 1003.89C111.568 1003.89 120.16 986.054 125.305 950.86C145.123 815.324 199.19 770.225 251.476 726.611C297.801 687.973 341.56 651.473 360.383 556.696C367.48 520.932 356.56 465.946 342.374 435.506C336.045 421.921 328.067 414.285 320.358 406.902C313.58 400.415 307.181 394.284 302.236 384.509C298.732 377.58 299.355 369.511 300.017 360.97C300.697 352.139 301.401 343.01 297.136 335.275Z" fill="white"/>
<path d="M-75.4297 46.0579C43.9254 131.087 172.556 266.355 195.975 333.589C210.039 373.969 175.945 422.218 132.784 483.302C83.7365 552.715 22.6953 639.107 18.8988 742.791C14.2699 869.184 -35.4916 921.095 -75.4297 936.792V940.049C-34.5749 924.383 16.6548 871.8 21.3736 742.938C25.1301 640.35 85.8474 554.421 134.636 485.374C178.388 423.456 212.947 374.544 198.244 332.333C174.65 264.596 44.7894 128.15 -75.4297 42.7297V46.0579Z" fill="white"/>
<path d="M270.223 560.905C268.949 568.67 265.258 578.223 260.094 587.116C254.71 596.37 243.678 611.96 230.267 612.325L230.135 613.444V612.33C229.918 612.33 229.704 612.312 229.491 612.281C228.221 612.094 228.003 611.403 227.93 611.176C227.543 609.946 227.598 605.656 236.458 592.423L236.729 592.022C238.894 588.738 241.014 585.405 243.132 582.077C246.388 576.962 249.756 571.665 253.244 566.661C253.879 565.752 254.619 564.58 255.441 563.284C258.736 558.08 263.718 550.225 268.06 550.225H268.065C268.783 550.26 269.308 550.581 269.713 551.232C270.936 553.201 270.752 557.67 270.223 560.905ZM268.134 547.997L267.9 547.992C262.867 547.992 257.775 556.026 254.059 561.898C253.254 563.163 252.532 564.304 251.914 565.191C248.4 570.234 245.019 575.545 241.751 580.687C239.639 584.006 237.527 587.326 235.369 590.591L235.105 590.988C228.041 601.539 225.156 608.409 226.285 611.996C226.596 612.985 227.369 614.215 229.285 614.495C229.563 614.535 229.849 614.558 230.135 614.558L230.307 614.553C244.477 614.166 255.946 598.019 261.521 588.431C266.83 579.292 270.635 569.423 271.954 561.359C272.263 559.479 273.114 553.09 271.108 549.859C270.387 548.701 269.359 548.055 268.134 547.997Z" fill="white"/>
<path d="M524.286 924.602C510.694 916.814 494.721 913.027 475.455 913.027C435.335 913.027 388.465 930.002 347.117 944.977C313.496 957.154 281.739 968.654 259.741 968.658C246.795 968.658 238.014 964.737 232.894 956.673C226.693 946.902 225.69 930.969 229.829 907.965C238.775 858.224 289.912 798.471 335.03 745.754C362.454 713.714 388.359 683.444 401.947 658.845C445.476 580.036 459.793 439.702 411.73 356.402C399.59 335.358 379.001 314.44 357.201 292.296C310.788 245.148 258.186 191.713 279.343 123.954C289.279 92.1282 313.644 77.6301 339.437 62.2764C355.566 52.6793 372.24 42.7524 385.436 28.1473C396.868 15.4937 406.053 3.12079 414.937 -8.84222C437.763 -39.5852 455.793 -63.863 493.439 -63.863C499.371 -63.863 505.813 -63.2528 512.581 -62.0454C607.12 -45.1813 717.701 -19.3438 833.739 74.3598C961.457 177.496 1080.21 285.728 1129.81 474.766C1151.21 556.329 1141.83 652.5 1106.47 714.084C1082.5 755.828 1049.1 777.896 1009.88 777.9C996.031 777.9 981.371 775.12 966.299 769.635C919.387 752.553 889.709 717.466 875.576 662.374C862.918 613.047 863.534 552.363 864.132 493.675C865.088 399.566 866.076 302.249 813.221 245.919C787.97 218.998 787.294 218.584 772.704 223.111C766.393 225.071 757.746 227.749 743.132 229.482C732.188 230.779 724.419 231.113 718.178 231.38C696.828 232.298 696.828 232.298 665.971 267.488L665.557 267.96C656.875 277.86 644.352 285.189 631.093 292.946C611.417 304.459 591.072 316.36 583.774 337.617C573.998 366.088 582.836 447.637 588.648 482.67C595.525 524.151 616.592 562.339 635.174 596.04L639.092 603.151C645.612 615.021 652.514 627.091 659.19 638.764C698.308 707.178 738.761 777.923 737.766 866.115C737.122 923.172 687.566 990.517 641.354 997.137C638.416 997.557 635.482 997.774 632.629 997.774C605.489 997.774 586.11 978.808 565.595 958.727C552.931 946.331 539.838 933.513 524.286 924.602ZM641.556 999.347C688.518 992.624 738.881 924.156 739.536 866.15C740.537 777.219 699.915 706.171 660.627 637.463C653.955 625.799 647.06 613.738 640.547 601.877L636.629 594.771C618.142 561.247 597.185 523.255 590.378 482.216C584.606 447.409 575.789 366.484 585.398 338.504C592.428 318.022 612.465 306.304 631.84 294.965C645.223 287.132 657.866 279.74 666.746 269.608L667.16 269.136C697.536 234.495 697.536 234.495 718.239 233.608C724.504 233.341 732.301 233.002 743.298 231.701C758.044 229.95 766.761 227.25 773.129 225.276C777.178 224.02 780.102 223.115 782.7 223.115C789.088 223.115 794.419 228.796 812.081 247.621C864.295 303.274 863.315 400.056 862.363 493.649C861.166 611.43 859.931 733.221 965.811 771.774C981.038 777.317 995.865 780.128 1009.88 780.128C1049.69 780.124 1083.58 757.739 1107.9 715.39C1143.58 653.253 1153.06 556.275 1131.49 474.071C1081.7 284.338 962.693 175.847 834.695 72.4884C718.355 -21.4602 607.556 -47.3511 512.832 -64.2507C505.98 -65.4716 499.456 -66.0908 493.439 -66.0908C455.025 -66.0908 436.765 -41.501 413.645 -10.366C404.789 1.5614 395.633 13.8943 384.268 26.4722C371.26 40.8723 354.699 50.7322 338.683 60.2626C312.561 75.8078 287.891 90.4931 277.695 123.143C256.064 192.422 309.202 246.404 356.09 294.033C377.794 316.079 398.294 336.904 410.3 357.711C457.921 440.245 443.674 579.39 400.493 657.571C387.014 681.978 361.18 712.164 333.826 744.123C288.521 797.059 237.17 857.061 228.103 907.466C223.838 931.183 224.952 947.726 231.511 958.063C236.989 966.689 246.222 970.886 259.741 970.886C281.987 970.881 313.86 959.337 347.606 947.12C388.844 932.181 435.583 915.254 475.455 915.254C494.462 915.254 510.195 918.975 523.553 926.629C538.914 935.433 551.926 948.167 564.512 960.487C585.271 980.804 604.88 1000 632.629 1000C635.549 1000 638.551 999.779 641.556 999.347Z" fill="white"/>
<path d="M1489.34 440.642L1487.91 443.382C1486.39 446.301 1484.87 449.46 1483.4 452.512C1477.26 465.299 1470.9 478.527 1462.27 478.527C1461.15 478.527 1459.99 478.3 1458.83 477.863C1456.17 476.865 1453.31 474.686 1450.34 471.389C1442.63 462.839 1439.41 444.795 1436.83 430.287C1436.21 426.79 1435.62 423.488 1435.01 420.57C1429.22 392.674 1421.43 367.019 1413.89 342.198C1412.78 338.504 1411.44 334.361 1409.98 329.861C1409.26 327.615 1408.11 324.554 1406.79 321.007C1401.88 307.868 1393.67 285.871 1396.98 277.459C1399.63 270.714 1403.63 267.435 1409.19 267.435C1424.41 267.435 1446.64 291.828 1459.92 306.402C1463.47 310.296 1466.27 313.371 1468.13 315.073C1474.03 320.509 1479.7 325.708 1484.08 329.535C1527.51 367.483 1513.14 395.022 1489.34 440.642ZM1469.17 313.273C1467.38 311.629 1464.6 308.581 1461.08 304.723C1447.62 289.944 1425.08 265.207 1409.19 265.207C1402.98 265.207 1398.34 268.994 1395.39 276.47C1391.7 285.849 1399.82 307.579 1405.19 321.957C1406.5 325.472 1407.64 328.511 1408.34 330.703C1409.79 335.18 1411.12 339.315 1412.25 342.995C1419.76 367.755 1427.54 393.356 1433.3 421.131C1433.9 424.027 1434.49 427.302 1435.11 430.778C1437.74 445.592 1441.03 464.033 1449.17 473.06C1452.33 476.571 1455.41 478.906 1458.32 479.997C1459.65 480.496 1460.98 480.755 1462.27 480.755C1471.9 480.755 1478.52 466.983 1484.92 453.665C1486.38 450.627 1487.89 447.49 1489.39 444.607L1490.82 441.867C1515.21 395.116 1529.93 366.895 1485.1 327.704C1480.72 323.89 1475.07 318.704 1469.17 313.273Z" fill="white"/>
<path d="M1498.18 263.247C1490.37 256.078 1482.58 248.063 1474.32 239.575C1449.1 213.648 1420.51 184.26 1394.82 184.26C1389.76 184.26 1384.95 185.378 1380.1 187.682C1334.72 209.273 1341.23 269.681 1349.15 303.765C1353.99 324.59 1360.24 345.188 1366.29 365.109C1373.34 388.326 1380.63 412.337 1385.7 436.798C1388.76 451.554 1390.3 467.095 1391.79 482.128C1396.36 528.229 1400.67 571.772 1449.51 571.772C1453.38 571.772 1457.55 571.496 1461.91 570.957C1467.46 570.267 1472.05 569.166 1475.92 567.593C1488.92 562.327 1492.8 552.413 1498.68 537.398C1500.46 532.858 1502.48 527.716 1504.98 522.183C1508.82 513.686 1512.99 505.617 1517.34 497.847V495.53C1512.65 503.808 1508.17 512.416 1504.05 521.519C1501.54 527.088 1499.52 532.252 1497.73 536.81C1491.97 551.513 1488.17 561.226 1475.6 566.323C1471.79 567.865 1467.28 568.943 1461.81 569.625C1457.49 570.16 1453.35 570.436 1449.51 570.436C1401.61 570.436 1397.55 529.436 1392.85 481.963C1391.35 466.89 1389.81 451.305 1386.73 436.459C1381.64 411.927 1374.34 387.885 1367.28 364.632C1361.24 344.738 1355 324.163 1350.17 303.391C1342.36 269.748 1335.9 210.142 1380.48 188.929C1385.2 186.688 1389.89 185.597 1394.82 185.597C1420.13 185.597 1448.56 214.825 1473.65 240.613C1481.92 249.114 1489.72 257.139 1497.55 264.33C1503.45 269.757 1508.65 274.528 1512.55 277.924C1514.13 279.305 1515.74 280.682 1517.34 282.063V280.441C1515.94 279.238 1514.53 278.03 1513.15 276.828C1509.27 273.437 1504.07 268.674 1498.18 263.247Z" fill="white"/>
<path d="M1390.08 -384.667C1385.43 -384.667 1380.9 -384.716 1376.46 -384.76C1372.17 -384.805 1367.98 -384.845 1363.83 -384.845C1339.7 -384.845 1320.49 -383.219 1299.31 -375.123C1288.23 -370.89 1277.85 -364.238 1267.82 -357.809C1251.06 -347.071 1235.24 -336.926 1216.3 -336.926C1213.16 -336.926 1209.98 -337.216 1206.84 -337.786C1192.87 -340.33 1182.41 -350.698 1172.29 -360.723C1160.92 -371.995 1150.18 -382.635 1135.11 -382.635C1133.74 -382.635 1132.34 -382.546 1130.94 -382.363C1121.65 -381.169 1106.76 -370.636 1092.37 -360.456C1083.11 -353.906 1074.37 -347.722 1068.17 -344.844C1059.15 -340.664 1052.39 -338.637 1047.46 -337.158C1032.58 -332.702 1030.71 -331.054 1023.48 -296.573C1021.48 -287.038 1020.03 -278.127 1018.63 -269.51C1013.42 -237.533 1009.31 -212.275 982.227 -188.144C963.953 -171.899 940.762 -164.004 911.335 -164.004C882.176 -163.999 851.698 -171.685 824.801 -178.466C810.739 -182.013 797.455 -185.359 787.587 -186.682C781.853 -187.453 773.019 -187.917 763.951 -187.917C737.975 -187.917 707.539 -175.94 705.411 -158.76C704.403 -150.624 709.45 -138.407 739.235 -126.422L742.558 -125.085C856.069 -79.2514 935.237 -19.4452 1015.81 81.3515C1038.04 109.158 1055.01 122.11 1069.23 122.11C1072.57 122.11 1075.84 121.371 1078.94 119.918C1094.05 112.816 1105.07 88.8056 1117.84 61.0033C1124.43 46.6476 1131.89 30.3806 1140.72 14.7195C1183.47 -61.122 1244.81 -116.535 1313.46 -141.321C1333.71 -148.632 1353.48 -152.339 1372.22 -152.339C1433.35 -152.339 1476.49 -114.664 1517.34 -75.8919V-78.6766C1476.57 -117.31 1433.4 -154.567 1372.22 -154.567C1353.32 -154.567 1333.38 -150.829 1312.97 -143.46C1243.94 -118.54 1182.25 -62.8195 1139.28 13.4319C1130.4 29.1732 1122.91 45.4937 1116.3 59.8894C1103.71 87.3174 1092.84 111.007 1078.32 117.829C1075.41 119.192 1072.36 119.883 1069.23 119.883C1055.51 119.883 1038.93 107.135 1017.06 79.7742C936.27 -21.2943 856.898 -81.2564 743.096 -127.206L739.769 -128.543C717.467 -137.52 705.886 -148.129 707.16 -158.417C708.93 -172.688 735.999 -185.689 763.951 -185.689C772.959 -185.689 781.726 -185.234 787.4 -184.468C797.186 -183.158 810.431 -179.816 824.455 -176.283C851.429 -169.484 882.003 -161.772 911.335 -161.776C941.144 -161.776 964.664 -169.805 983.25 -186.321C1010.9 -210.965 1015.08 -236.606 1020.36 -269.064C1021.76 -277.65 1023.2 -286.53 1025.19 -296.002C1032.39 -330.354 1033.85 -330.791 1047.87 -334.992C1052.85 -336.481 1059.66 -338.526 1068.78 -342.754C1075.11 -345.69 1083.92 -351.919 1093.24 -358.513C1106.81 -368.115 1122.19 -378.999 1131.12 -380.149C1132.46 -380.323 1133.8 -380.407 1135.11 -380.407C1149.57 -380.407 1160.07 -369.999 1171.2 -358.972C1181.5 -348.764 1192.15 -338.209 1206.58 -335.581C1209.81 -334.992 1213.08 -334.698 1216.3 -334.698C1235.67 -334.698 1252.42 -345.436 1268.62 -355.822C1278.59 -362.211 1288.89 -368.819 1299.82 -372.993C1320.8 -381.009 1339.86 -382.617 1363.83 -382.617C1367.97 -382.617 1372.16 -382.577 1376.44 -382.533C1380.89 -382.488 1385.43 -382.439 1390.08 -382.439C1411.7 -382.439 1431.05 -379.262 1449.24 -372.731C1472.21 -364.47 1494.75 -352.926 1517.34 -339.479V-341.943C1494.92 -355.243 1472.55 -366.662 1449.72 -374.869C1431.38 -381.463 1411.87 -384.667 1390.08 -384.667Z" fill="white"/>
<path d="M1499.03 302.45C1494.92 298.863 1489.37 293.775 1483.57 288.438C1475.23 280.783 1467.2 272.527 1458.65 263.736C1456.73 261.754 1454.63 259.517 1452.39 257.124C1438.13 241.9 1418.6 221.044 1400.62 221.044C1395.67 221.044 1391.07 222.67 1386.95 225.873C1355.89 250.053 1374.57 307.801 1385.73 342.305C1387.09 346.506 1388.37 350.476 1389.43 353.969C1396.72 377.962 1404.26 402.77 1409.68 428.919C1410.7 433.829 1411.71 439.604 1412.8 445.717C1417.75 473.711 1424.53 512.054 1441.56 525.871C1444.36 528.152 1447.31 529.573 1450.33 530.099C1451.23 530.255 1452.16 530.34 1453.08 530.34C1473.9 530.34 1494.65 490.534 1509.8 461.471C1512.55 456.205 1515.05 451.442 1517.34 447.298V444.972C1514.81 449.464 1512.02 454.788 1508.92 460.736C1493.9 489.541 1473.32 529.003 1453.08 529.003C1452.21 529.003 1451.33 528.923 1450.48 528.776C1447.61 528.277 1444.81 526.922 1442.13 524.748C1425.47 511.23 1418.74 473.198 1413.83 445.423C1412.75 439.301 1411.73 433.513 1410.71 428.581C1405.27 402.365 1397.72 377.516 1390.42 353.492C1389.36 349.981 1388.07 346.007 1386.71 341.797C1375.68 307.69 1357.21 250.597 1387.51 227.01C1391.46 223.94 1395.87 222.385 1400.62 222.385C1418.21 222.385 1437.57 243.054 1451.7 258.145C1453.95 260.542 1456.05 262.787 1458.03 264.819C1466.54 273.57 1474.59 281.839 1482.94 289.516C1488.75 294.858 1494.3 299.951 1498.42 303.551C1503.95 308.367 1509.53 313.125 1515.48 318.196C1516.11 318.73 1516.71 319.221 1517.34 319.751V318.147C1516.9 317.777 1516.48 317.43 1516.04 317.055C1510.13 312.021 1504.55 307.262 1499.03 302.45Z" fill="white"/>
<path d="M1315.04 618.656C1317.05 621.958 1320.81 626.462 1330.27 627.438C1365.64 631.078 1419.1 636.585 1464.25 688.358L1464.77 688.937C1480.2 706.688 1492.73 729.144 1502.02 755.685C1504.59 763.01 1508.76 767.216 1513.46 767.216C1514.74 767.216 1516.05 766.886 1517.34 766.218V764.623C1516.06 765.389 1514.76 765.879 1513.46 765.879C1509.2 765.879 1505.38 761.967 1502.99 755.146C1493.64 728.435 1481.02 705.828 1465.49 687.953L1464.97 687.364C1419.55 635.289 1365.87 629.764 1330.36 626.106C1321.32 625.175 1317.77 620.946 1315.89 617.845C1311.38 610.427 1310.81 598.994 1311.33 595.47C1316.24 568.202 1322.36 534.265 1320.07 497.119C1316.19 434.239 1296.22 380.211 1276.91 327.957C1261.41 286.027 1243.84 238.5 1249.94 216.837C1260.8 178.279 1305.18 122.996 1323.76 101.021C1335.56 87.053 1349.58 79.9733 1365.44 79.9733C1374.51 79.9733 1382.33 82.3748 1387.3 84.3887C1419.86 97.5992 1465.95 127.874 1517.34 169.444V167.858C1466.11 126.466 1420.14 96.3116 1387.62 83.1188C1382.59 81.0738 1374.65 78.6366 1365.44 78.6366C1349.3 78.6366 1335.04 85.8411 1323.03 100.045C1304.4 122.091 1259.88 177.558 1248.94 216.387C1242.69 238.571 1260.36 286.361 1275.95 328.528C1295.22 380.666 1315.15 434.582 1319.01 497.222C1321.29 534.162 1315.19 567.993 1310.28 595.229C1309.74 598.918 1310.34 610.908 1315.04 618.656Z" fill="white"/>
<path d="M1381.68 578.273C1389.73 583.829 1400.8 586.2 1411.49 588.49C1419.41 590.183 1427.6 591.938 1434.27 594.964C1438.48 596.875 1443.13 599.762 1448.05 602.814C1458.21 609.11 1469.71 616.252 1480.19 616.252C1482.21 616.252 1484.16 615.985 1485.99 615.459C1486.47 615.316 1486.95 615.16 1487.43 614.982C1502.43 609.35 1510.44 585.674 1517.34 563.913V560.304C1517.29 560.434 1517.25 560.563 1517.21 560.692C1510.2 582.876 1502.26 608.018 1487.12 613.703C1486.67 613.873 1486.21 614.02 1485.75 614.153C1484 614.661 1482.13 614.915 1480.19 614.915C1469.96 614.915 1458.57 607.849 1448.52 601.616C1443.57 598.541 1438.89 595.645 1434.63 593.707C1427.87 590.637 1419.64 588.877 1411.67 587.171C1401.06 584.899 1390.09 582.551 1382.19 577.097C1364.71 565.032 1366.53 542.937 1368.46 519.545C1369.22 510.389 1370 500.917 1369.47 492.269C1364.89 418.138 1343.02 358.934 1321.85 301.685C1312.25 275.692 1311.54 247.203 1319.88 221.477C1328.89 193.635 1347.79 171.139 1371.71 159.755C1379.18 156.209 1386.95 154.413 1394.82 154.413C1428.96 154.413 1461.03 187.375 1489.32 216.46C1497.33 224.694 1504.9 232.469 1512.15 239.139C1514.03 240.863 1515.73 242.418 1517.34 243.893V242.235C1515.91 240.934 1514.41 239.549 1512.78 238.061C1505.55 231.413 1497.99 223.647 1489.99 215.422C1461.56 186.199 1429.34 153.072 1394.82 153.072C1386.82 153.072 1378.92 154.903 1371.34 158.508C1347.14 170.021 1328.02 192.788 1318.9 220.969C1310.45 247.047 1311.16 275.91 1320.89 302.251C1342.01 359.393 1363.85 418.481 1368.41 492.371C1368.93 500.899 1368.15 510.309 1367.41 519.407C1365.52 542.206 1363.58 565.776 1381.68 578.273Z" fill="white"/>
<path d="M1390.08 -339.671C1360.32 -339.671 1328.66 -332.876 1295.09 -325.672C1257.32 -317.558 1218.26 -309.173 1176.65 -309.173C1173.65 -309.173 1170.68 -309.213 1167.83 -309.302C1153.39 -309.73 1141.14 -312.729 1130.33 -315.38C1120.99 -317.67 1112.92 -319.644 1105.18 -319.644C1086.78 -319.644 1073.26 -307.453 1058.5 -277.57C1051.38 -263.161 1046.2 -245.945 1041.17 -229.3C1032.29 -199.844 1023.1 -169.386 1002.8 -151.342C995.812 -145.131 982.439 -140.323 968.278 -135.235C943.541 -126.346 915.497 -116.273 911.689 -95.2381C906.939 -68.875 949.961 -32.8032 973.077 -13.4218C977.378 -9.81285 981.094 -6.6985 983.53 -4.44847C1010.63 20.578 1033.05 37.2461 1054.35 37.2461C1057.27 37.2461 1060.18 36.9252 1062.99 36.2881C1079.98 32.4475 1095.42 17.3211 1111.56 -11.3233C1158.99 -95.4609 1227.19 -156.991 1303.6 -184.58C1327.06 -193.05 1350.15 -197.345 1372.22 -197.345C1433.29 -197.345 1478.47 -166.299 1517.34 -131.715V-133.355C1478.48 -167.84 1433.28 -198.681 1372.22 -198.681C1350.05 -198.681 1326.86 -194.368 1303.31 -185.863C1226.66 -158.194 1158.26 -96.4812 1110.7 -12.0941C1094.73 16.2429 1079.51 31.1955 1062.8 34.9737C1060.05 35.5931 1057.21 35.9094 1054.35 35.9094C1033.34 35.9094 1011.09 19.3439 984.16 -5.52667C981.707 -7.79452 977.98 -10.9178 973.665 -14.5357C950.765 -33.7344 908.135 -69.4764 912.726 -94.944C916.393 -115.203 944.114 -125.161 968.572 -133.952C982.818 -139.071 996.279 -143.906 1003.42 -150.25C1023.98 -168.531 1033.22 -199.18 1042.16 -228.823C1047.17 -245.411 1052.34 -262.564 1059.4 -276.862C1073.94 -306.299 1087.2 -318.307 1105.18 -318.307C1112.82 -318.307 1120.84 -316.342 1130.12 -314.065C1140.97 -311.405 1153.27 -308.398 1167.8 -307.966C1170.67 -307.881 1173.65 -307.837 1176.65 -307.837C1218.35 -307.837 1257.45 -316.235 1295.32 -324.366C1328.79 -331.553 1360.41 -338.339 1390.08 -338.339C1408.41 -338.339 1424.61 -335.715 1439.61 -330.319C1465.33 -321.074 1491.08 -306.963 1517.34 -290.425V-291.922C1491.19 -308.362 1465.54 -322.388 1439.9 -331.602C1424.8 -337.033 1408.5 -339.671 1390.08 -339.671Z" fill="white"/>
<path d="M1358.75 602.273C1365.99 604.563 1373.06 606.626 1379.91 608.622C1416.91 619.426 1448.87 628.756 1480.83 665.175L1481.47 665.906C1488.82 674.273 1494.61 678.346 1499.2 678.346C1499.91 678.346 1500.61 678.243 1501.28 678.052C1508.22 676.029 1511.68 663.839 1515.49 648.106C1516.07 645.674 1516.71 643.25 1517.34 640.822V636.433C1516.35 640.184 1515.38 643.945 1514.47 647.719C1510.77 663.028 1507.43 674.888 1501.04 676.746C1496.45 678.105 1490.37 674.242 1482.18 664.908L1481.54 664.182C1449.38 627.526 1417.29 618.165 1380.14 607.321C1373.31 605.325 1366.24 603.262 1359.01 600.976C1333.05 592.778 1337.44 562.057 1341.69 532.344C1343.54 519.36 1345.46 505.936 1344.77 494.699C1340.55 426.205 1319.62 369.584 1299.38 314.808C1296.96 308.263 1294.37 301.865 1291.86 295.677C1278.85 263.566 1267.62 235.835 1283.68 201.706C1295.76 176.024 1313.86 155.008 1331.36 134.686C1334.52 131.019 1337.65 127.375 1340.74 123.725C1347.5 115.741 1356.7 111.691 1368.08 111.691C1411.68 111.691 1478.75 170.112 1517.34 205.31V203.662C1478.56 168.316 1411.77 110.359 1368.08 110.359C1356.42 110.359 1346.98 114.525 1340.02 122.75C1336.93 126.399 1333.8 130.043 1330.64 133.706C1313.08 154.09 1294.93 175.173 1282.76 201.019C1266.41 235.786 1278.32 265.174 1290.92 296.287C1293.42 302.462 1296.01 308.851 1298.42 315.392C1318.62 370.039 1339.5 426.552 1343.71 494.802C1344.39 505.873 1342.49 519.209 1340.64 532.103C1336.31 562.423 1331.83 593.771 1358.75 602.273Z" fill="white"/>
<path d="M620.577 1197.57C616.882 1188.64 613.388 1180.21 615.912 1173.37C619.696 1163.13 626.807 1161.58 633.68 1160.07C639.188 1158.86 644.883 1157.62 648.274 1151.7C653.777 1142.1 656.432 1130.59 659.002 1119.47C662.545 1104.12 665.893 1089.62 676.232 1081.36C690.266 1070.16 702.318 1068.29 713.973 1066.49C729.958 1064.01 745.053 1061.68 762.202 1035.27C784.37 1001.13 800.666 947.286 805.794 891.227C816.144 778.026 763.048 693.541 716.203 619.005C675.234 553.816 639.853 497.521 654.602 436.325C670.307 371.154 713.74 337.056 748.526 337.056C766.687 337.056 782.36 345.58 793.849 361.718C810.275 384.784 816.813 421.697 812.746 468.462C802.043 591.43 805.692 743.273 929.931 826.684C970.175 853.698 1011.73 866.833 1056.98 866.828C1114.98 866.828 1168.76 845.014 1216.2 825.762C1254.47 810.235 1287.52 796.824 1316.31 796.824C1354.14 796.824 1378.74 820.469 1396.08 873.476C1439.29 1005.57 1397.72 1115.56 1369.1 1169.37C1322.99 1256.04 1254.11 1307.83 1214.15 1307.83C1201.93 1307.83 1192.46 1303.37 1186.01 1294.58C1124.45 1210.76 1045.67 1168.26 951.858 1168.26C923.245 1168.26 892.699 1172.21 861.071 1180C847.295 1183.41 832.348 1186.35 816.519 1189.47C776.25 1197.4 730.612 1206.39 697.355 1225.38C690.124 1229.51 679.056 1243.1 666.233 1258.84C647.41 1281.96 626.074 1308.15 613.229 1308.15C612.089 1308.15 611.028 1307.93 610.075 1307.5C604.398 1304.93 600.968 1301.13 599.584 1295.88C596.052 1282.46 606.886 1261.88 615.59 1245.35C620.811 1235.43 625.32 1226.86 626.173 1221.14C627.274 1213.75 623.869 1205.52 620.577 1197.57ZM613.887 1243.92C604.94 1260.92 593.801 1282.08 597.648 1296.7C599.216 1302.66 603.166 1307.11 609.385 1309.92C610.56 1310.45 611.856 1310.72 613.229 1310.72C626.906 1310.72 648.557 1284.13 667.659 1260.68C679.814 1245.75 691.296 1231.66 698.198 1227.72C731.2 1208.88 776.696 1199.91 816.838 1192.01C832.68 1188.88 847.649 1185.94 861.463 1182.53C892.965 1174.76 923.376 1170.82 951.858 1170.82C1045.08 1170.82 1123.35 1213.05 1184.51 1296.32C1191.36 1305.66 1201.34 1310.4 1214.15 1310.4C1254.08 1310.4 1322.55 1261.47 1370.79 1170.8C1399.64 1116.57 1441.54 1005.7 1397.97 872.505C1380.51 819.119 1354.57 794.257 1316.31 794.257C1287.2 794.257 1254.01 807.726 1215.57 823.32C1168.28 842.51 1114.66 864.262 1056.98 864.262C1012.08 864.262 970.833 851.225 930.894 824.416C807.734 741.731 804.142 590.908 814.771 468.743C818.905 421.234 812.194 383.63 795.364 359.998C783.482 343.307 767.285 334.486 748.526 334.486C712.986 334.486 668.643 369.212 652.648 435.581C637.591 498.06 673.28 554.846 714.603 620.6C761.201 694.744 814.017 778.788 803.766 890.928C798.684 946.519 782.554 999.874 760.62 1033.64C743.992 1059.25 729.289 1061.53 713.726 1063.94C701.844 1065.78 689.558 1067.68 675.142 1079.19C664.148 1087.97 660.697 1102.92 657.041 1118.76C654.521 1129.67 651.916 1140.96 646.617 1150.2C643.715 1155.27 638.671 1156.37 633.333 1157.54C626.283 1159.08 618.298 1160.83 614.064 1172.29C611.116 1180.28 615.002 1189.67 618.765 1198.75C621.901 1206.32 625.139 1214.15 624.17 1220.67C623.391 1225.87 618.988 1234.24 613.887 1243.92Z" fill="white"/>
<path d="M1469.35 939.842C1473.9 943.5 1481.29 945.514 1490.15 945.514C1498.05 945.514 1507.39 943.856 1517.34 940.042V936.785C1507.38 940.697 1498.03 942.395 1490.15 942.395C1481.88 942.395 1474.78 940.506 1470.69 937.213C1449.89 920.492 1440.71 890.978 1430.98 859.736C1422.57 832.772 1413.89 804.894 1397.04 785.236L1396.99 784.318L1396.26 784.341C1376.88 762.82 1350.76 752.359 1316.43 752.359C1282.97 752.359 1247.74 762.473 1219.44 770.604C1200.11 776.156 1183.41 780.954 1172.66 780.954C1166.35 780.954 1162.51 779.319 1160.93 775.955C1158.82 771.478 1160.41 763.092 1165.65 751.036C1190.11 694.821 1239.5 560.795 1236.08 505.333C1233.38 461.566 1216.68 416.37 1200.52 372.662C1177.13 309.367 1152.94 243.92 1170.54 181.4C1190.64 110.068 1279.16 -17.4351 1342.16 -28.2485C1345.83 -28.8768 1349.79 -29.1977 1353.94 -29.1977C1394.91 -29.1977 1454.85 1.54089 1517.34 46.0513V42.7186C1454.84 -1.68933 1394.94 -32.3166 1353.94 -32.3166C1349.68 -32.3166 1345.6 -31.9868 1341.82 -31.3362C1278.04 -20.3846 1188.5 108.352 1168.21 180.358C1150.26 244.08 1174.67 310.115 1198.27 373.98C1214.34 417.435 1230.95 462.373 1233.61 505.573C1236.66 555.021 1193.57 680.385 1163.48 749.539C1157.63 762.999 1156.14 771.896 1158.8 777.546C1160.86 781.939 1165.4 784.069 1172.66 784.069C1183.69 784.069 1200.51 779.239 1219.99 773.643C1248.17 765.552 1283.25 755.478 1316.43 755.478C1350.35 755.478 1376.04 765.815 1394.99 787.09L1394.99 787.094C1411.66 806.284 1420.31 834.037 1428.67 860.873C1438.55 892.605 1447.88 922.577 1469.35 939.842Z" fill="white"/>
<path d="M679.428 1172C693.954 1160.65 713.846 1145.09 733.695 1122.82C763.785 1089.05 788.526 1046.53 807.232 996.442C819 964.933 826.635 930.697 829.927 894.701C841.416 768.949 782.551 675.29 735.242 600.019C698.51 541.567 666.782 491.086 677.842 445.195C690.114 394.268 722.691 367.624 748.526 367.624C759.75 367.624 768.913 372.499 775.762 382.118C787.287 398.3 791.849 427.782 788.6 465.128C777.964 587.338 779.864 760.577 918.506 853.652C962.353 883.09 1007.65 897.396 1056.98 897.396C1118.81 897.396 1174.51 874.794 1223.7 854.837C1260.01 840.107 1291.35 827.396 1316.32 827.396C1336.28 827.396 1357.03 834.387 1373.63 885.112C1412.54 1004.07 1374.85 1103.61 1348.92 1152.35C1316.3 1213.65 1261.36 1263.53 1226.44 1263.53C1217.11 1263.53 1209.51 1260.08 1203.87 1253.27C1163.91 1205.13 1126.74 1174.53 1086.86 1156.96C1052.55 1141.85 1014.71 1135.4 960.346 1135.4C901.704 1135.4 840.655 1147.35 788.444 1169.05C726.277 1194.9 686.458 1196.91 675.733 1196.91C670.671 1196.91 666.69 1196.52 664.513 1195.81C661.253 1194.76 659.504 1193.45 659.32 1191.95C658.853 1188.09 667.486 1181.34 679.428 1172ZM664.247 1197.11C666.509 1197.84 670.587 1198.24 675.733 1198.24C686.496 1198.24 726.461 1196.23 788.777 1170.32C840.889 1148.66 901.817 1136.73 960.346 1136.73C1056.69 1136.73 1120.7 1154.9 1203.13 1254.24C1208.99 1261.29 1216.83 1264.86 1226.44 1264.86C1262.27 1264.86 1316.46 1215.77 1349.8 1153.09C1375.85 1104.13 1413.71 1004.14 1374.61 884.609C1357.78 833.152 1336.65 826.055 1316.32 826.055C1291.18 826.055 1259.76 838.802 1223.33 853.585C1174.26 873.493 1118.65 896.06 1056.98 896.06C1007.83 896.06 962.696 881.802 919.001 852.472C780.93 759.775 779.054 587.098 789.658 465.275C792.939 427.542 788.281 397.695 776.552 381.227C769.494 371.314 760.065 366.288 748.526 366.288C722.298 366.288 689.247 393.257 676.827 444.807C665.607 491.371 697.49 542.102 734.421 600.861C781.599 675.927 840.312 769.345 828.868 894.545C825.591 930.403 817.988 964.492 806.269 995.876C787.623 1045.8 762.967 1088.18 732.988 1121.82C713.209 1144.02 693.36 1159.54 678.865 1170.87C665.667 1181.18 657.699 1187.41 658.273 1192.15C658.531 1194.29 660.432 1195.87 664.247 1197.11Z" fill="white"/>
<path d="M763.257 466.212C761.14 490.512 761.661 508.161 762.036 521.05C762.652 541.956 762.885 549.779 751.789 554.64C749.209 555.772 746.522 555.826 743.804 554.801C734.704 551.357 722.195 532.421 712.685 507.675C702.594 481.423 699.16 457.511 703.507 443.707C710.129 422.686 730.248 399.264 748.526 399.264C753.53 399.264 755.58 401.175 757.049 403.238C762.227 410.509 766.021 434.476 763.257 466.212ZM748.526 397.036C729.54 397.036 708.696 421.203 701.861 442.883C697.338 457.257 700.785 481.842 711.092 508.646C720.804 533.918 733.745 553.321 743.291 556.935C744.749 557.487 746.214 557.764 747.648 557.764C749.241 557.764 750.83 557.421 752.369 556.743C764.697 551.343 764.418 541.822 763.806 520.966C763.43 508.147 762.91 490.593 765.012 466.457C767.837 434.07 763.805 409.391 758.369 401.75C756.624 399.304 754.224 397.036 748.526 397.036Z" fill="white"/>
<path d="M778.838 1110.91C816.041 1065.17 840.425 1015.52 851.301 963.355C860.047 921.411 857.542 889.015 856.469 875.177C856.239 872.16 856.069 869.973 856.083 868.681C856.182 858.375 859.644 857.181 862.235 857.181C868.068 857.181 877.936 864.31 889.361 872.561C895.386 876.914 902.213 881.842 909.313 886.364C955.167 915.566 1000.71 928.585 1056.98 928.585C1122.72 928.585 1180.38 905.184 1231.26 884.538C1265.6 870.61 1295.25 858.584 1316.31 858.584C1326.55 858.584 1338.15 858.584 1350.72 896.986C1382.65 994.611 1351.35 1075.45 1332.65 1123.74C1331.1 1127.73 1329.64 1131.51 1328.29 1135.08C1313.65 1173.97 1264.37 1238.45 1237.78 1238.44C1233.66 1238.44 1230.28 1236.83 1227.73 1233.67C1182.97 1178.28 1136.65 1142.01 1086.13 1122.78C1041.1 1105.64 999.298 1104.21 960.346 1104.21C891.542 1104.21 833.947 1114.75 784.271 1136.44C779.991 1138.31 775.886 1139.34 772.718 1139.34C770.322 1139.34 767.281 1138.75 766.382 1135.97C765.54 1133.37 766.035 1126.66 778.838 1110.91ZM772.718 1140.68C776.006 1140.68 780.229 1139.62 784.614 1137.7C834.181 1116.06 891.659 1105.54 960.346 1105.54C1045.89 1105.54 1130.66 1115.41 1226.98 1234.62C1229.74 1238.05 1233.38 1239.78 1237.78 1239.78C1237.78 1239.78 1237.78 1239.78 1237.79 1239.78C1264.73 1239.78 1314.5 1174.82 1329.25 1135.66C1330.6 1132.09 1332.06 1128.31 1333.6 1124.32C1352.38 1075.83 1383.81 994.66 1351.7 896.478C1338.86 857.243 1326.88 857.243 1316.31 857.243C1295.08 857.243 1265.36 869.304 1230.93 883.268C1180.13 903.883 1122.55 927.248 1056.98 927.248C1000.88 927.248 955.49 914.274 909.791 885.17C902.712 880.666 895.902 875.743 889.889 871.403C877.858 862.71 868.355 855.844 862.235 855.844C857.464 855.844 855.103 860.041 855.018 868.663C855.004 870.031 855.177 872.245 855.414 875.31C861.959 959.88 835.944 1038.83 778.098 1109.96C767.996 1122.38 763.724 1131.31 765.398 1136.48C766.287 1139.23 768.817 1140.68 772.718 1140.68Z" fill="white"/>
<path d="M623.855 834.146C622.598 836.174 620.988 837.163 618.935 837.163C613.286 837.163 604.844 830.012 594.158 820.963C575.289 804.981 549.444 783.095 518.205 783.095C514.336 783.095 510.428 783.438 506.595 784.116C497.594 785.702 492.207 786.384 488.583 786.384C485.171 786.384 483.231 785.764 482.813 784.548C481.621 781.068 489.86 770.072 502.337 753.426L506.117 748.374C519.16 730.935 526.668 713.772 532.15 701.239C537.098 689.935 540.365 682.464 544.276 682.464C545.802 682.464 547.529 683.586 549.554 685.903C581.299 722.144 641.23 806.064 623.855 834.146ZM550.743 684.25C548.379 681.55 546.262 680.236 544.276 680.236C539.318 680.236 535.849 688.167 530.6 700.165C525.163 712.592 517.716 729.612 504.829 746.854L501.049 751.898C486.279 771.609 479.536 780.609 481.189 785.435C481.943 787.631 484.222 788.611 488.583 788.611C492.292 788.611 497.754 787.925 506.843 786.326C510.595 785.662 514.417 785.323 518.205 785.323C548.906 785.323 574.489 806.995 593.167 822.812C604.104 832.07 612.744 839.391 618.935 839.391C621.536 839.391 623.66 838.085 625.249 835.514C644.847 803.84 576.302 713.429 550.743 684.25Z" fill="white"/>
<path d="M600.087 795.518C600.201 797.403 599.917 798.093 599.737 798.338C599.677 798.423 599.493 798.673 598.856 798.673C595.967 798.673 589.579 793.847 582.178 788.26C567.853 777.451 548.237 762.641 529.322 762.222C526.512 762.155 525.27 760.765 525.291 757.695C525.365 747.283 540.199 724.524 551.239 724.524C552.506 724.524 553.674 724.854 554.711 725.504C568.837 734.393 598.902 776.114 600.087 795.518ZM551.239 721.405C538.851 721.405 522.898 745.986 522.813 757.669C522.778 762.449 525.135 765.243 529.276 765.337C547.53 765.751 566.82 780.307 580.903 790.938C589.249 797.238 595.284 801.796 598.856 801.796C599.995 801.796 600.901 801.346 601.556 800.459C602.374 799.35 602.703 797.652 602.558 795.286C601.248 773.873 568.933 730.967 555.819 722.711C554.435 721.842 552.895 721.405 551.239 721.405Z" fill="white"/>
<path d="M441.589 215.416C419.156 199.844 407.862 185.72 407.055 172.229C405.996 154.501 422.639 138.447 441.911 119.855C448.226 113.764 454.753 107.464 461.145 100.669C501.223 58.0302 518.35 50.5272 539.52 50.5272C545.615 50.5272 551.993 51.191 559.376 51.9529L562.841 52.3094C643.117 60.463 701.461 100.567 704.474 107.517C705.082 108.921 704.955 109.629 704.806 110.035C704.042 112.147 699.6 113.363 692.245 115.372C675.673 119.908 644.833 128.342 598.583 160.836C552.743 193.045 523.203 253.626 514.262 299.38C512.085 310.528 509.855 315.946 507.448 315.946C503.99 315.946 499.336 305.435 493.45 292.131C483.083 268.722 467.424 233.341 441.589 215.416ZM507.445 317.282C507.448 317.282 507.448 317.282 507.448 317.282C510.5 317.282 512.92 311.86 515.292 299.701C524.18 254.228 553.536 194.016 599.1 162.004C645.212 129.608 675.952 121.2 692.468 116.678C700.669 114.437 704.785 113.31 705.773 110.587C706.155 109.54 706.035 108.328 705.405 106.876C702.233 99.5599 645.092 59.3224 562.93 50.9772L559.461 50.6208C552.057 49.8544 545.661 49.1906 539.52 49.1906C518.088 49.1906 500.791 56.7426 460.458 99.6446C454.091 106.421 447.568 112.713 441.264 118.794C421.747 137.619 404.896 153.881 405.996 172.327C406.842 186.5 417.992 200.562 441.08 216.584C466.642 234.325 482.216 269.506 492.519 292.786C499.053 307.534 503.364 317.278 507.445 317.282Z" fill="white"/>
<path d="M404.403 227.766C379.163 205.52 367.249 187.234 366.917 170.219C366.496 148.743 384.324 131.327 406.895 109.272C417.096 99.3052 427.647 88.9996 437.915 76.9787C479.391 28.4316 500.178 13.6305 526.883 13.6305C531.679 13.6305 536.992 14.1117 543.126 15.0964C597.917 23.8871 654.998 44.9303 717.637 79.4248C732.495 87.6095 750.062 97.5587 767.657 109.29C769.639 110.609 772.672 112.275 776.187 114.204C787.846 120.594 805.462 130.253 807.646 140.144C808.261 142.925 808.134 145.054 807.274 146.48C806.134 148.365 803.855 148.761 802.142 148.761C798.447 148.761 793.958 146.979 791.442 145.219C788.164 142.929 785.772 138.665 783.453 134.544C780.052 128.489 776.537 122.233 770.078 121.543C763.416 120.807 761.179 125.089 758.992 129.193C757.523 131.946 756.132 134.548 753.463 135.876C751.849 136.678 750.37 137.066 748.933 137.066C745.138 137.066 742.261 134.263 739.213 131.296C736.276 128.44 733.242 125.481 729.059 124.55C728.23 124.363 727.363 124.269 726.492 124.269C719.162 124.269 711.439 130.819 703.971 137.155C698.116 142.118 692.588 146.805 687.286 148.565C659.975 157.623 636.664 169.02 616.011 183.398C549.037 230.021 529.014 317.304 519.783 378.905C518.417 388.008 516.569 392.437 514.134 392.437C509.374 392.437 501.75 377.074 491.195 355.817C473.08 319.313 445.698 264.154 404.403 227.766ZM514.134 393.773C517.207 393.773 519.334 389.126 520.827 379.15C530.019 317.821 549.943 230.921 616.524 184.57C637.099 170.241 660.332 158.889 687.555 149.857C693.03 148.039 698.895 143.067 704.562 138.26C711.899 132.04 719.488 125.606 726.492 125.606C727.303 125.606 728.103 125.691 728.871 125.86C732.8 126.738 735.73 129.594 738.566 132.352C741.758 135.466 744.774 138.402 748.933 138.402C750.508 138.402 752.115 137.983 753.849 137.119C756.829 135.64 758.376 132.739 759.873 129.937C761.993 125.962 763.976 122.233 769.989 122.875C775.953 123.512 779.174 129.246 782.586 135.314C784.972 139.561 787.435 143.949 790.925 146.386C793.481 148.173 798.082 150.098 802.142 150.098C804.984 150.098 806.994 149.153 808.12 147.291C809.192 145.513 809.376 142.991 808.669 139.783C806.35 129.282 788.455 119.471 776.615 112.975C773.118 111.059 770.099 109.406 768.156 108.109C750.526 96.3557 732.941 86.3976 718.061 78.204C655.331 43.656 598.154 22.5771 543.261 13.7686C537.084 12.7751 531.725 12.2938 526.883 12.2938C499.86 12.2938 478.902 27.1796 437.193 75.9985C426.957 87.9793 416.427 98.2671 406.244 108.216C383.435 130.498 365.42 148.102 365.855 170.255C366.195 187.729 378.254 206.353 403.795 228.862C444.913 265.094 472.223 320.115 490.296 356.525C501.431 378.954 508.783 393.773 514.134 393.773Z" fill="white"/>
<path d="M537.71 885.224C523.266 876.95 506.092 872.922 485.206 872.922C446.509 872.922 402.782 887.278 367.646 898.813C342.703 907.002 321.158 914.073 307.704 914.077C307.701 914.077 307.697 914.077 307.694 914.077C300.463 914.077 295.996 912.046 294.049 907.858C291.31 901.981 293.327 891.582 300.215 876.072C316.606 839.181 345.35 806.045 373.149 773.992C395.976 747.678 417.534 722.825 432.337 696.431C462.553 642.546 480.385 581.109 483.907 518.759C487.931 447.471 473.38 379.681 440.658 317.273C429.017 295.071 407.394 276.416 386.483 258.371C347.517 224.75 310.709 192.995 337.949 141.739C351.838 115.608 364.485 105.824 379.124 94.4933C388.351 87.3512 398.807 79.2599 410.834 65.947C421.265 54.3983 429.65 43.108 437.759 32.1876C458.653 4.05115 475.157 -18.1728 509.657 -18.1728C515.086 -18.1728 520.979 -17.6158 527.173 -16.5109C610.794 -1.59393 703.259 23.3391 812.71 104.073C956.795 210.359 1054.23 309.605 1094.74 475.728C1113.58 552.968 1106.6 638.318 1077.36 688.113C1060.27 717.225 1036.44 732.614 1008.43 732.614C992.969 732.614 976.1 727.985 958.3 718.851C925.17 701.853 904.9 662.97 896.323 599.992C888.827 544.917 891.248 478.642 893.389 420.172C893.991 403.7 894.561 388.146 894.918 373.073C896.472 307.867 882.229 253.862 853.74 216.908C827.796 183.256 790.486 164.725 748.678 164.725C693.14 164.725 636.883 196.101 594.331 250.801C568.348 284.208 552.304 318.672 545.281 356.174C539.009 389.661 540.124 424.855 548.69 463.769C564.614 536.064 603.102 608.003 643.856 684.169C658.085 710.764 672.798 738.268 686.287 765.491C717.47 828.438 712.069 872.784 702.048 898.902C691.101 927.435 668.618 948.082 644.773 951.495C642.076 951.882 639.386 952.078 636.77 952.078C611.887 952.078 594.158 934.72 575.385 916.35C563.832 905.037 551.883 893.342 537.71 885.224ZM644.893 952.827C669.092 949.361 691.901 928.42 703.004 899.481C713.141 873.065 718.627 828.247 687.19 764.787C673.69 737.542 658.969 710.029 644.737 683.421C604.033 607.352 565.587 535.498 549.716 463.413C531.761 381.877 546.18 314.617 595.092 251.737C637.442 197.291 693.423 166.062 748.678 166.062C790.196 166.062 827.236 184.45 852.979 217.839C881.266 254.53 895.4 308.192 893.856 373.038C893.499 388.097 892.929 403.647 892.327 420.11C890.189 478.651 887.761 545.002 895.276 600.21C903.916 663.687 924.398 702.9 957.896 720.09C975.827 729.29 992.831 733.951 1008.43 733.951C1036.78 733.951 1060.92 718.374 1078.22 688.906C1107.64 638.79 1114.69 552.964 1095.76 475.336C1055.15 308.798 957.553 209.369 813.248 102.923C703.638 22.0692 611.048 -2.8949 527.322 -17.8297C521.082 -18.9436 515.139 -19.5095 509.657 -19.5095C474.694 -19.5095 458.054 2.90167 436.984 31.2743C428.893 42.1724 420.525 53.4404 410.133 64.94C398.174 78.1818 387.757 86.2418 378.568 93.3572C363.823 104.768 351.084 114.623 337.068 141C309.244 193.352 346.469 225.472 385.881 259.476C406.707 277.445 428.245 296.024 439.773 318.008C512.265 456.262 483.015 603.739 431.469 695.656C416.735 721.939 395.215 746.742 372.434 773.012C344.572 805.132 315.764 838.343 299.291 875.422C292.201 891.381 290.184 902.212 293.132 908.539C295.288 913.164 300.052 915.414 307.694 915.414C307.697 915.414 307.701 915.414 307.704 915.414C321.296 915.41 342.897 908.321 367.911 900.105C402.991 888.592 446.647 874.259 485.206 874.259C505.646 874.259 523.167 878.358 537.272 886.444C551.33 894.496 563.227 906.142 574.73 917.401C593.652 935.923 611.523 953.415 636.77 953.415C639.424 953.415 642.157 953.219 644.893 952.827Z" fill="white"/>
<path d="M538.33 851.345C528.912 844.907 515.904 841.779 498.564 841.779C476.517 841.779 451.157 846.903 428.78 851.416C410.403 855.128 394.532 858.331 383.192 858.331H383.188C376.197 858.331 371.614 857.088 369.172 854.535C369.147 854.504 369.062 854.419 369.044 854.112C368.609 847.094 397.417 805.792 427.916 762.066C466.663 706.524 510.577 643.563 512.496 625.754C513.565 615.827 510.269 608.275 507.084 600.968C503.665 593.14 500.437 585.74 502.196 575.621C503.555 567.797 507.24 563.409 511.144 558.762C516.241 552.693 521.507 546.424 521.652 532.109C521.709 526.49 518.439 516.964 514.651 505.933C511.137 495.698 507.155 484.101 505.427 474.116C503.403 462.398 504.847 454.882 509.845 451.143C510.889 450.364 511.937 449.972 512.959 449.972C525.192 449.972 534.469 504.436 539.452 533.699C541.127 543.533 542.337 550.635 543.197 553.379C560.056 606.912 594.438 662.196 629.086 713.96C656.666 755.16 687.392 818.668 683.205 862.061C681.8 876.634 676.508 888.219 667.479 896.488C660.294 903.069 651.537 906.402 641.446 906.402C613.927 906.402 581.211 882.471 554.924 863.241C548.988 858.897 543.385 854.798 538.33 851.345ZM668.102 897.571C677.379 889.074 682.816 877.178 684.26 862.221C688.486 818.401 657.615 754.5 629.897 713.095C595.309 661.421 560.987 606.244 544.188 552.88C543.357 550.247 542.089 542.824 540.49 533.419C535.088 501.709 526.048 448.63 512.959 448.63C511.745 448.63 510.514 449.089 509.303 449.998C503.863 454.066 502.256 462.05 504.39 474.401C506.139 484.511 510.142 496.175 513.674 506.463C517.416 517.352 520.644 526.758 520.591 532.091C520.453 545.841 515.352 551.918 510.415 557.79C506.567 562.37 502.585 567.111 501.159 575.331C499.315 585.94 502.791 593.906 506.153 601.614C509.254 608.73 512.464 616.086 511.445 625.572C509.569 642.984 465.764 705.784 427.116 761.188C395.137 807.035 367.515 846.636 367.986 854.214C368.021 854.794 368.191 855.248 368.496 855.56C371.132 858.322 375.939 859.668 383.188 859.668H383.192C394.617 859.668 410.527 856.455 428.95 852.735C451.284 848.226 476.602 843.116 498.564 843.116C515.724 843.116 528.565 846.19 537.821 852.517C542.865 855.965 548.464 860.06 554.389 864.391C580.787 883.705 613.644 907.738 641.446 907.738C651.764 907.738 660.733 904.316 668.102 897.571Z" fill="white"/>
<path d="M625.504 871.194C625.501 871.194 625.501 871.194 625.497 871.194C603.602 871.194 575.502 851.349 556.505 832.778C542.716 819.296 525.889 812.746 505.059 812.746C489.832 812.746 475.009 816.168 461.931 819.189C451.942 821.493 443.316 823.489 436.538 823.489C430.744 823.489 426.964 822.041 424.639 818.917C423.616 817.545 423.156 816.075 423.233 814.422C423.541 807.997 431.887 799.202 443.444 787.02C471.413 757.538 518.226 708.198 525.999 616.941C526.93 606.038 528.36 601.173 530.639 601.173C534.501 601.173 541.576 613.434 553.299 633.756C565.736 655.311 584.535 687.89 611.505 726.123C627.023 748.119 658.053 805.266 654.938 841.516C654.103 851.197 650.84 858.705 645.24 863.833C639.906 868.716 633.266 871.194 625.504 871.194ZM655.99 841.658C659.15 804.967 627.918 747.375 612.298 725.236C585.363 687.052 566.582 654.505 554.155 632.967C541.831 611.603 535.042 599.832 530.639 599.832C527.62 599.832 525.974 604.75 524.947 616.803C517.214 707.516 470.609 756.643 442.764 785.996C430.567 798.85 422.508 807.342 422.175 814.341C422.08 816.351 422.646 818.2 423.863 819.831C426.405 823.239 430.429 824.83 436.538 824.83C443.408 824.83 452.084 822.82 462.122 820.503C475.154 817.492 489.928 814.079 505.059 814.079C525.645 814.079 542.259 820.544 555.854 833.83C574.992 852.538 603.336 872.53 625.497 872.53C625.501 872.53 625.501 872.53 625.504 872.53C633.493 872.53 640.349 869.968 645.867 864.916C651.717 859.551 655.126 851.732 655.99 841.658Z" fill="white"/>
<path d="M958.159 345.348C958.336 345.098 958.527 344.996 958.785 344.996C959.274 344.996 960.222 345.374 961.96 347.179C971.977 357.591 1053.59 482.225 1029.62 600.443C1026.09 617.882 1018.95 627.483 1009.53 627.483H1009.53C1002.71 627.479 995.093 622.275 988.067 612.825C972.221 591.514 956.576 544.165 960.183 475.194C962.317 434.386 959.921 399.763 958.328 376.848C957.164 360.024 956.322 347.87 958.159 345.348ZM958.421 475.047C954.771 544.731 970.678 592.695 986.775 614.344C994.141 624.253 1002.22 629.706 1009.53 629.711H1009.53C1019.84 629.711 1027.59 619.512 1031.34 600.991C1055.52 481.704 973.194 355.965 963.086 345.459C960.169 342.434 958.159 342.042 956.849 343.842C954.488 347.085 955.228 357.725 956.566 377.04C958.152 399.887 960.544 434.409 958.421 475.047Z" fill="white"/>
<path d="M928.165 275.159C928.501 274.682 928.936 274.459 929.545 274.459C931.757 274.459 935.866 277.529 941.36 282.136C977.278 312.282 1072.72 449.725 1045.82 602.758C1040.83 631.149 1024.08 649.488 1003.16 649.488C988.414 649.488 973.679 640.492 961.662 624.167C938.507 592.702 927.998 538.354 932.079 471.13C937.311 385.036 931.824 330.822 928.876 301.7C927.358 286.685 926.441 277.623 928.165 275.159ZM931.024 471.023C926.915 538.626 937.519 593.335 960.884 625.08C973.102 641.682 988.116 650.824 1003.16 650.824C1003.16 650.824 1003.16 650.824 1003.16 650.824C1024.6 650.824 1041.76 632.071 1046.86 603.043C1061.77 518.229 1038.7 441.924 1016.72 392.842C990.895 335.17 957.854 294.371 941.944 281.022C936.135 276.144 932.033 273.123 929.545 273.123C928.635 273.123 927.906 273.51 927.368 274.277C925.326 277.195 926.161 285.442 927.821 301.87C930.766 330.946 936.242 385.067 931.024 471.023Z" fill="white"/>
<path d="M899.57 216.556C899.86 216.115 900.256 215.91 900.826 215.91C903.683 215.91 909.884 220.981 920.155 229.375C1010.48 303.176 1097.03 439.924 1069.07 602.367C1060.04 654.848 1030.77 690.104 996.254 690.1C978.245 690.1 961.373 680.253 947.452 661.634C920.346 625.361 907.657 559.251 911.717 475.479C917.777 350.413 906.833 277.548 901.57 242.532C899.354 227.798 898.019 218.904 899.57 216.556ZM910.659 475.403C906.578 559.54 919.373 626.003 946.677 662.547C960.806 681.447 977.944 691.437 996.254 691.437H996.258C1031.29 691.437 1060.97 655.757 1070.11 602.652C1083.6 524.302 1072 447.186 1035.65 373.434C998.82 298.72 947.841 250.405 920.736 228.252C906.932 216.971 901.017 212.275 898.749 215.701C896.883 218.539 898.101 226.639 900.525 242.781C905.782 277.744 916.711 350.497 910.659 475.403Z" fill="white"/>
<path d="M474.644 161.734C482.053 135.834 547.441 100.351 578.79 100.351C579.887 100.351 580.949 100.391 581.965 100.476C588.106 101.001 590.807 101.558 591.925 102.004C590.598 103.162 587.108 105.083 583.713 106.949C568.384 115.393 539.845 131.107 526.016 163.984C517.316 184.676 510.956 192.736 503.328 192.736C497.12 192.736 489.517 187.576 477.911 175.488C474.177 171.599 473.108 167.099 474.644 161.734ZM503.332 195.854C513.363 195.854 520.53 183.7 528.207 165.441C541.629 133.527 569.651 118.097 584.705 109.81C592.329 105.613 595.181 104.04 594.817 101.411C594.512 99.2014 592.552 98.2613 582.135 97.3657C550.782 94.688 480.424 132.324 472.312 160.674C470.436 167.241 471.823 173.194 476.333 177.89C488.42 190.481 496.494 195.854 503.328 195.854C503.328 195.854 503.328 195.854 503.332 195.854Z" fill="white"/>
<path d="M488.162 224.476C482.028 206.061 469.636 198.287 458.703 191.434C449.075 185.397 440.761 180.184 439.558 169.063C439.097 164.835 441.299 158.851 445.925 151.762C465.017 122.485 518.046 82.9292 540.493 81.2139C546.184 80.7817 551.901 80.5589 557.497 80.5589C606.511 80.5589 639.184 97.6324 639.853 104.837C639.963 105.982 638.469 106.601 637.57 106.869C601.535 117.615 557.033 137.13 532.586 193.185C512.269 239.763 497.014 251.04 488.162 224.476ZM534.136 194.254C558.247 138.975 602.299 119.674 637.981 109.034C641.407 108.014 641.726 105.804 641.612 104.578C640.777 95.5695 607.368 78.3312 557.497 78.3312C551.869 78.3312 546.11 78.554 540.387 78.995C517.6 80.7327 463.863 120.743 444.559 150.35C439.543 158.04 437.271 164.438 437.802 169.366C439.133 181.654 447.836 187.112 457.913 193.43C468.571 200.109 480.651 207.683 486.534 225.34C489.956 235.619 494.451 240.832 499.895 240.832C509.137 240.832 520.658 225.162 534.136 194.254Z" fill="white"/>
<path d="M986.931 467.943C987.844 465.969 988.824 464.784 989.55 464.784C990.191 464.784 990.821 465.777 991.136 466.374C1008.63 499.171 1009.01 554.718 1002.53 570.014C1001.66 572.081 1000.7 573.222 999.85 573.222C998.746 573.217 997.305 571.43 995.896 568.321C977.912 528.644 980.5 481.884 986.931 467.943ZM999.846 576.336C999.85 576.336 999.85 576.336 999.85 576.336C1001.72 576.336 1003.35 574.705 1004.72 571.479C1011.61 555.217 1011.48 498.908 993.196 464.637C990.817 460.19 987.373 460.765 984.789 466.374C977.919 481.269 975.035 528.591 993.744 569.871C995.687 574.162 997.744 576.336 999.846 576.336Z" fill="white"/>
<path d="M1230.07 713.046C1232.6 717.626 1238.76 719.582 1250.69 719.582C1258.15 719.578 1267.05 718.834 1277.36 717.969C1290.12 716.9 1304.57 715.684 1319.53 715.684C1366.85 715.684 1398.77 728.342 1420.05 755.623C1439.84 774.781 1450.75 806.019 1460.38 833.576C1472.08 867.072 1482.19 896.002 1504.51 896.002C1506.87 896.002 1509.38 895.663 1511.95 894.999C1513.66 894.554 1515.47 893.97 1517.34 893.253V890.914C1515.34 891.707 1513.41 892.344 1511.59 892.812C1509.14 893.449 1506.75 893.774 1504.51 893.774C1483.34 893.774 1473.45 865.464 1462 832.68C1452.28 804.878 1441.28 773.364 1421.22 753.961C1399.68 726.328 1367.36 713.456 1319.53 713.456C1304.51 713.456 1290.02 714.672 1277.24 715.746C1266.97 716.606 1258.09 717.35 1250.69 717.354C1239.71 717.354 1233.63 715.581 1231.53 711.776C1230.38 709.695 1230.36 706.875 1231.47 703.15C1253.99 627.376 1272.84 531.458 1271.02 501.913C1267.83 450.189 1249.76 401.313 1232.29 354.053C1210.93 296.257 1190.75 241.668 1203.57 196.141C1221.4 132.865 1302.8 23.0231 1346.9 15.4532C1349 15.0923 1351.37 14.9097 1353.94 14.9097C1388.27 14.9097 1448.77 45.8531 1517.34 97.0201V94.4359C1448.85 43.4783 1388.4 12.6819 1353.94 12.6819C1351.3 12.6819 1348.84 12.8735 1346.65 13.2478C1302.08 20.9023 1219.87 131.626 1201.9 195.393C1188.84 241.779 1209.17 296.773 1230.69 354.993C1248.09 402.075 1266.09 450.76 1269.25 502.087C1270.85 527.965 1253.97 621.089 1229.81 702.366C1228.49 706.826 1228.57 710.319 1230.07 713.046Z" fill="white"/>
<path d="M1283.52 655.013C1290.11 666.927 1304.01 668.268 1323.25 670.122C1325.34 670.322 1327.49 670.532 1329.7 670.755C1335.78 671.383 1342.15 671.659 1348.9 671.949C1380.19 673.299 1415.65 674.822 1447.68 711.54L1448.07 711.977C1465.83 731.554 1476.4 766.04 1485.72 796.462C1495.12 827.111 1503.23 853.586 1516.12 853.586C1516.52 853.586 1516.93 853.479 1517.34 853.43V852.084C1516.93 852.142 1516.52 852.249 1516.12 852.249C1503.96 852.249 1495.96 826.171 1486.71 795.985C1477.34 765.412 1466.73 730.766 1448.77 710.979L1448.39 710.547C1416.09 673.504 1380.41 671.967 1348.93 670.612C1342.2 670.322 1335.85 670.046 1329.79 669.427C1327.58 669.2 1325.42 668.99 1323.33 668.79C1304.38 666.963 1290.69 665.644 1284.4 654.247C1278.43 643.456 1279.27 623.25 1287.14 588.747C1294.41 556.814 1297.1 527.635 1295.37 499.539C1291.84 442.277 1272.83 390.851 1254.44 341.088C1235.24 289.155 1217.11 240.1 1226.59 206.416C1242.39 150.335 1318.63 51.3427 1350.2 45.9203C1350.9 45.8 1352.12 45.6574 1353.94 45.6574C1380.31 45.6574 1439.97 73.2859 1517.34 132.927V131.359C1440.04 71.878 1380.38 44.3207 1353.94 44.3207C1352.06 44.3207 1350.79 44.4723 1350.05 44.597C1318.24 50.055 1241.47 149.595 1225.59 205.971C1215.96 240.167 1234.18 289.462 1253.49 341.681C1271.83 391.306 1290.79 442.62 1294.31 499.641C1296.03 527.577 1293.35 556.605 1286.11 588.381C1278.05 623.776 1277.28 643.705 1283.52 655.013Z" fill="white"/>
<path d="M507.962 974.302C504.433 972.983 500.214 972.342 495.067 972.342C473.331 972.342 439.71 983.948 400.779 997.394C351.694 1014.34 296.06 1033.55 251.002 1033.56C220.384 1033.56 198.579 1024.8 184.343 1006.8C171.311 990.32 164.764 965.525 164.884 933.106C165.098 876.286 225.986 813.846 279.708 758.75C311.729 725.913 341.978 694.893 356.829 668.004C387.354 612.734 414.339 552.892 405.157 489.802C399.816 453.107 383.22 431.355 365.65 408.333C355.962 395.635 345.942 382.51 337.468 366.309C329.575 351.227 325.381 337.732 321.682 325.827C314.391 302.364 308.632 283.838 280.408 267.446C272.042 262.59 265.476 259.061 260.203 256.227C239.749 245.227 239.749 245.227 231.691 218.681C229.99 213.071 227.937 206.308 225.275 198.047C214.992 166.115 206.957 159.868 196.559 159.868C194.351 159.868 192.089 160.145 189.694 160.434C187.028 160.755 184.272 161.094 181.273 161.094C174.7 161.094 165.548 159.694 153.02 148.783C143.446 140.447 139.422 132.868 141.061 126.265C147.508 100.267 237.581 90.5362 255.492 90.5362C255.925 90.5362 256.217 90.5408 256.361 90.5676L256.64 89.1284L257.186 90.4962C268.955 83.0109 275.336 73.4138 281.506 64.1331C289.714 51.7869 297.469 40.1224 317.152 32.2273C324.153 29.4159 330.078 27.2594 334.839 25.5262C360.553 16.1652 360.9 15.6927 371.936 -25.1686L373.33 -30.3324C375.39 -37.938 373.727 -43.3113 372.258 -48.052C370.357 -54.1917 368.715 -59.4937 375.291 -69.2067C378.802 -74.3795 391.399 -80.5057 402.517 -85.9148C410.01 -89.5593 417.093 -93.0034 420.869 -95.895C426.752 -100.4 430.751 -106.517 434.617 -112.434C439.636 -120.111 444.371 -127.36 452.923 -131.214C458.692 -133.816 465.799 -135.135 474.043 -135.135C495.018 -135.135 519.677 -126.887 539.491 -120.262C544.029 -118.743 548.276 -117.326 552.124 -116.123C616.468 -96.0643 677.694 -59.605 736.906 -24.3486L743.004 -20.7131C883.709 63.0146 990.046 156.629 1068.09 265.468C1120.49 338.543 1154.31 409.719 1171.49 483.061C1191.65 569.204 1177.17 674.26 1135.45 744.487C1113.8 780.933 1075.37 824.375 1015.21 824.379C999.652 824.383 983.416 821.345 966.965 815.357C823.499 763.125 828.231 585.03 843.925 422.199C848.615 373.532 841.363 333.976 822.94 307.804C807.363 285.674 783.815 273.483 756.631 273.483C706.647 273.483 642.869 316.746 623.119 396.923C600.477 488.853 648.797 567.208 695.522 642.982C745.337 723.76 796.843 807.283 768.078 910.263C751.481 969.664 689.693 1047.4 637.861 1054.83C634.972 1055.24 632.091 1055.44 629.288 1055.44C601.786 1055.44 582.28 1035.81 561.631 1015.01C545.618 998.883 529.057 982.206 507.962 974.302ZM638.14 1057.92C690.825 1050.37 753.584 971.535 770.418 911.301C799.632 806.713 747.701 722.509 697.483 641.071C649.01 562.471 603.227 488.229 625.487 397.845C644.883 319.094 707.532 276.598 756.631 276.598C783.096 276.598 805.982 288.418 821.085 309.876C839.02 335.357 846.07 374.066 841.466 421.825C825.644 585.925 820.94 765.437 966.275 818.346C982.953 824.424 999.418 827.498 1015.21 827.498C1076.4 827.493 1115.45 783.371 1137.44 746.354C1179.6 675.383 1194.24 569.217 1173.87 482.183C1156.59 408.378 1122.59 336.81 1069.93 263.378C991.66 154.228 885.068 60.377 744.063 -23.5334L737.964 -27.1689C678.642 -62.4877 617.303 -99.0184 552.718 -119.153C548.885 -120.347 544.648 -121.764 540.128 -123.274C520.176 -129.948 495.343 -138.254 474.043 -138.254C465.513 -138.254 458.126 -136.872 452.087 -134.15C442.892 -130.002 437.714 -122.08 432.702 -114.417C428.967 -108.7 425.106 -102.792 419.581 -98.5594C415.992 -95.8103 409.012 -92.4153 401.622 -88.8241C389.676 -83.0142 377.323 -77.0082 373.408 -71.2295C365.869 -60.0996 367.943 -53.3986 369.95 -46.9203C371.391 -42.2643 372.753 -37.8667 370.984 -31.335L369.589 -26.1754C358.865 13.5364 358.865 13.5364 334.148 22.532C329.374 24.2697 323.431 26.4349 316.398 29.2552C296.028 37.4222 287.679 49.9868 279.605 62.1324C273.394 71.4756 267.524 80.3019 256.473 87.4531C256.175 87.4174 255.845 87.4174 255.492 87.4174C242.738 87.4174 146.113 95.424 138.695 125.334C136.697 133.394 141.043 142.144 151.61 151.349C164.85 162.88 174.879 164.212 181.273 164.212C184.391 164.212 187.207 163.869 189.933 163.54C192.266 163.254 194.47 162.987 196.559 162.987C204.333 162.987 212.202 165.758 222.98 199.219C225.634 207.453 227.68 214.203 229.376 219.795C237.73 247.316 238.008 247.686 259.23 259.092C264.49 261.921 271.037 265.441 279.371 270.28C306.689 286.142 312.285 304.155 319.371 326.963C323.119 339.01 327.363 352.671 335.398 368.025C343.999 384.461 354.097 397.694 363.862 410.49C381.17 433.169 397.516 454.591 402.722 490.368C411.737 552.331 385.014 611.509 354.794 666.222C340.141 692.755 310.027 723.636 278.142 756.335C223.997 811.859 162.627 874.797 162.407 933.089C162.283 966.371 169.072 991.91 182.587 1009C197.312 1027.63 219.69 1036.67 251.002 1036.67C296.396 1036.67 352.2 1017.4 401.434 1000.4C440.191 987.018 473.664 975.46 495.067 975.46C499.902 975.46 504.004 976.08 507.254 977.296C527.889 985.022 544.255 1001.5 560.084 1017.44C581.084 1038.59 600.919 1058.56 629.288 1058.56C632.183 1058.56 635.163 1058.35 638.14 1057.92Z" fill="white"/>
<path d="M961.556 -224.86C949.558 -214.193 933.127 -209.007 911.335 -209.007C885.73 -209.003 857.092 -216.225 831.824 -222.596C816.93 -226.348 802.864 -229.895 791.375 -231.436C785.747 -232.189 770.644 -233.945 752.03 -233.945C717.548 -233.945 673.326 -228.063 658.467 -200.043C652.004 -187.861 651.739 -172.552 657.678 -154.539C660.471 -146.082 667.684 -141.489 674.66 -137.046C680.178 -133.531 685.888 -129.895 689.052 -124.473C692.807 -118.044 695.023 -109.039 697.164 -100.329C700.017 -88.731 702.966 -76.7369 709.666 -69.6526C717.973 -60.8664 727.087 -56.7762 738.357 -56.7762C746.176 -56.7762 754.175 -58.7678 761.905 -60.6881C769.547 -62.5906 777.447 -64.5555 785.078 -64.5555C792.401 -64.5555 798.776 -62.7287 804.57 -58.9727C818.639 -49.8434 824.557 -37.5552 830.284 -25.6724C837.745 -10.1761 844.793 4.46017 868.026 11.3038C916.633 25.6238 929.956 40.5808 962.14 76.7238C966.289 81.3842 970.749 86.3878 975.633 91.7834C987.218 104.584 995.776 119.194 1004.04 133.322C1011.42 145.927 1019.06 158.963 1028.88 170.864C1040.96 185.505 1052.34 192.019 1063.34 198.319C1078.02 206.713 1091.87 214.644 1104.43 241.809L1106.4 246.068C1122.21 280.487 1138.19 312.335 1148.01 312.335C1149.59 312.335 1150.95 311.555 1152.07 310.018C1155.61 305.139 1156.57 292.169 1155 270.369C1154.08 257.59 1146.75 246.175 1139.65 235.13C1132 223.225 1124.78 211.975 1125.21 199.549C1125.73 184.645 1132.89 177.311 1140.46 169.55C1146.01 163.869 1151.75 157.992 1155.11 148.894C1163.17 127.035 1165.13 107.453 1167.02 88.5219C1169.65 62.1677 1172.13 37.2748 1190.87 9.11163C1224.41 -41.2756 1271.45 -79.3388 1323.32 -98.0697C1340.61 -104.307 1356.6 -107.342 1372.22 -107.342C1425.23 -107.342 1463.26 -71.0472 1503.53 -32.623C1508.08 -28.27 1512.69 -23.8947 1517.34 -19.5283V-23.4224C1513.2 -27.321 1509.09 -31.224 1505.02 -35.1047C1464.41 -73.8586 1426.06 -110.46 1372.22 -110.46C1356.37 -110.46 1340.15 -107.386 1322.64 -101.068C1270.29 -82.168 1222.82 -43.7484 1188.97 7.11111C1169.76 35.9738 1167.24 61.3078 1164.56 88.1299C1162.69 106.83 1160.77 126.162 1152.86 147.58C1149.74 156.027 1144.23 161.672 1138.9 167.13C1131.23 174.985 1123.3 183.108 1122.74 199.41C1122.26 213.018 1130.12 225.257 1137.72 237.091C1144.59 247.77 1151.68 258.816 1152.53 270.649C1154.38 296.295 1152.3 305.068 1150.24 307.915C1149.59 308.802 1148.89 309.216 1148.01 309.216C1138.27 309.216 1117.44 263.873 1108.54 244.509L1106.58 240.236C1093.61 212.215 1079.41 204.089 1064.37 195.481C1053.56 189.287 1042.37 182.885 1030.6 168.618C1020.93 156.9 1013.36 143.975 1006.04 131.473C997.687 117.211 989.055 102.463 977.265 89.4398C972.391 84.0531 967.935 79.0496 963.79 74.3936C931.273 37.8808 917.812 22.7678 868.592 8.26514C846.375 1.72 839.586 -12.3683 832.401 -27.2898C826.497 -39.5424 820.398 -52.2138 805.703 -61.7441C799.551 -65.7363 792.805 -67.6743 785.078 -67.6743C777.206 -67.6743 769.182 -65.6783 761.427 -63.7491C753.807 -61.8511 745.935 -59.8951 738.357 -59.8951C727.703 -59.8951 719.095 -63.7535 711.259 -72.0407C705.118 -78.5369 702.279 -90.0811 699.532 -101.251C697.331 -110.207 695.051 -119.47 691.048 -126.322C687.537 -132.341 681.559 -136.146 675.779 -139.831C668.902 -144.206 662.407 -148.346 659.968 -155.737C654.365 -172.726 654.553 -187.05 660.527 -198.314C674.777 -225.185 718.154 -230.826 752.03 -230.826C770.527 -230.826 785.524 -229.084 791.113 -228.335C802.485 -226.807 816.502 -223.274 831.336 -219.536C856.717 -213.137 885.482 -205.884 911.335 -205.888C933.658 -205.888 950.552 -211.262 962.99 -222.311C993.964 -249.882 985.08 -291.456 976.486 -331.663C967.308 -374.614 957.822 -419.03 995.974 -448.009C1000.55 -451.484 1006.66 -453.249 1014.15 -453.249C1036.96 -453.249 1069.1 -437.547 1100.18 -422.363C1127.25 -409.139 1152.82 -396.651 1169.45 -396.156C1171.85 -396.085 1174.23 -396.053 1176.63 -396.053C1176.64 -396.053 1176.64 -396.053 1176.65 -396.053C1212.41 -396.053 1248.55 -403.81 1283.5 -411.318C1318.39 -418.808 1354.46 -426.551 1390.08 -426.551C1415.01 -426.551 1437.5 -422.822 1458.86 -415.145C1478.6 -408.047 1498.09 -398.682 1517.34 -387.958V-391.357C1498.33 -401.899 1479.07 -411.122 1459.54 -418.144C1437.96 -425.901 1415.24 -429.675 1390.08 -429.675C1354.25 -429.675 1318.07 -421.904 1283.08 -414.392C1248.23 -406.911 1212.19 -399.172 1176.65 -399.172C1174.23 -399.074 1171.89 -399.203 1169.5 -399.275C1153.31 -399.756 1127.94 -412.147 1101.08 -425.272C1069.78 -440.559 1037.43 -456.363 1014.15 -456.363C1006.09 -456.363 999.73 -454.505 994.697 -450.682C954.941 -420.487 964.678 -374.921 974.097 -330.856C982.85 -289.875 991.122 -251.17 961.556 -224.86Z" fill="white"/>
</g>
</g>
<defs>
<clipPath id="clip0_284_1124">
<rect width="1443" height="876" fill="white"/>
</clipPath>
</defs>
</svg>
