<svg width="24" height="24" viewBox="0 0 24 24" fill="none" xmlns="http://www.w3.org/2000/svg">
<path d="M4.25895 16.5939C3.14076 14.7089 2.74916 12.4805 3.15768 10.3272C3.56621 8.1739 4.74675 6.2438 6.47764 4.89933C8.20853 3.55486 10.3707 2.8885 12.5581 3.02539C14.7455 3.16227 16.8078 4.09298 18.3575 5.64274C19.9073 7.19251 20.838 9.25472 20.9749 11.4421C21.1118 13.6296 20.4455 15.7917 19.101 17.5226C17.7565 19.2535 15.8264 20.4341 13.6732 20.8426C11.5199 21.2511 9.29149 20.8596 7.40649 19.7414L7.40651 19.7413L4.29808 20.6294C4.16947 20.6662 4.03338 20.6678 3.90391 20.6343C3.77443 20.6007 3.65628 20.5332 3.5617 20.4386C3.46713 20.344 3.39956 20.2259 3.36601 20.0964C3.33246 19.9669 3.33415 19.8308 3.37089 19.7022L4.25901 16.5938L4.25895 16.5939Z" stroke="#373737" stroke-width="1.6" stroke-linecap="round" stroke-linejoin="round"/>
<path d="M12.325 12C12.325 12.1795 12.1795 12.325 12 12.325C11.8205 12.325 11.675 12.1795 11.675 12C11.675 11.8205 11.8205 11.675 12 11.675C12.1795 11.675 12.325 11.8205 12.325 12Z" fill="#373737" stroke="#373737" stroke-width="1.6"/>
<path d="M7.825 12C7.825 12.1795 7.67949 12.325 7.5 12.325C7.32051 12.325 7.175 12.1795 7.175 12C7.175 11.8205 7.32051 11.675 7.5 11.675C7.67949 11.675 7.825 11.8205 7.825 12Z" fill="#373737" stroke="#373737" stroke-width="1.6"/>
<path d="M16.5 13.125C17.1213 13.125 17.625 12.6213 17.625 12C17.625 11.3787 17.1213 10.875 16.5 10.875C15.8787 10.875 15.375 11.3787 15.375 12C15.375 12.6213 15.8787 13.125 16.5 13.125Z" fill="#373737"/>
</svg>
