<svg xmlns="http://www.w3.org/2000/svg" xmlns:xlink="http://www.w3.org/1999/xlink" version="1.1" x="0px" y="0px" viewBox="0 0 100 125" style="enable-background:new 0 0 100 100;" xml:space="preserve"><path d="M83.6,13.8h-7.4V6.4c0-0.8-0.6-1.4-1.4-1.4H26.3c-0.8,0-1.4,0.6-1.4,1.4v7.3h-7.4c-0.8,0-1.4,0.6-1.4,1.4c0,0,0,0,0,0v7.6  c0,5.2,3.8,9.6,9,10.4C26,44,33.8,53,44.3,55.6v14h-6.4c-0.8,0-1.4,0.6-1.4,1.4l0,0v6.3h-6.2c-0.8,0-1.4,0.6-1.4,1.4v14.7  c0,0.8,0.6,1.4,1.4,1.4h40c0.8,0,1.4-0.6,1.4-1.4c0,0,0,0,0,0V78.8c0-0.8-0.6-1.4-1.4-1.4c0,0,0,0,0,0h-6V71c0-0.8-0.6-1.4-1.4-1.4  c0,0,0,0,0,0h-6.4v-14C67.1,53.1,75,44.1,76,33.2c5.1-0.8,9-5.2,9-10.4v-7.6C85,14.4,84.4,13.8,83.6,13.8L83.6,13.8z M82.2,22.7  c0,3.6-2.5,6.7-6,7.5V16.6h6V22.7z M68.9,92.1H31.7V80.2h37.1V92.1z M61.5,77.4H39.3v-4.9h22.2V77.4z M47.2,69.6V56.1  c2.2,0.3,4.3,0.3,6.5,0v13.5L47.2,69.6z M50.5,53.5L50.5,53.5c-12.6,0-22.8-10.2-22.8-22.8V7.9h45.7v22.8  C73.3,43.3,63.1,53.5,50.5,53.5L50.5,53.5z M18.8,22.7v-6.2h6v13.7C21.3,29.5,18.8,26.4,18.8,22.7z"/><path d="M58.8,82.1h-17c-0.8,0-1.4,0.6-1.4,1.4v5.3c0,0.8,0.6,1.4,1.4,1.4l0,0h17c0.8,0,1.4-0.6,1.4-1.4c0,0,0,0,0,0v-5.3  C60.2,82.7,59.6,82.1,58.8,82.1C58.8,82.1,58.8,82.1,58.8,82.1z M57.4,87.4H43.2v-2.5h14.1V87.4z"/><path d="M50.5,16.9c-7.6,0-13.8,6.2-13.8,13.8s6.2,13.8,13.8,13.8s13.8-6.2,13.8-13.8S58.1,16.9,50.5,16.9z M50.5,41.7  c-6.1,0-11-4.9-11.1-11c0-6.1,4.9-11,11-11.1c6.1,0,11,4.9,11.1,11c0,0,0,0,0,0.1C61.5,36.8,56.6,41.7,50.5,41.7z"/><path d="M50.5,25.5c0.9,0,1.7,0.8,1.7,1.9c0,0.8,0.6,1.4,1.4,1.4c0.8,0,1.4-0.6,1.4-1.4c0-2-1.2-3.8-3.1-4.5c0-0.8-0.6-1.4-1.4-1.4  c-0.8,0-1.4,0.6-1.4,1.4c-1.9,0.7-3.1,2.5-3.1,4.5c0,2.6,2,4.7,4.5,4.7c0.9,0,1.7,0.8,1.7,1.9s-0.8,1.9-1.7,1.9  c-0.9,0-1.7-0.8-1.7-1.9c0-0.8-0.6-1.4-1.4-1.4c-0.8,0-1.4,0.6-1.4,1.4c0,2,1.2,3.8,3.1,4.5c0,0.8,0.6,1.4,1.4,1.4  c0.8,0,1.4-0.6,1.4-1.4C53.8,37.8,55,36,55,34c0-2.6-2-4.7-4.5-4.7c-0.9,0-1.7-0.8-1.7-1.9S49.6,25.5,50.5,25.5z"/><text x="0" y="115" fill="#000000" font-size="5px" font-weight="bold" font-family="'Helvetica Neue', Helvetica, Arial-Unicode, Arial, Sans-serif">Created by Riyan Resdian</text><text x="0" y="120" fill="#000000" font-size="5px" font-weight="bold" font-family="'Helvetica Neue', Helvetica, Arial-Unicode, Arial, Sans-serif">from the Noun Project</text></svg>