<svg class="svg-icon" style="width: 1em;height: 1em;vertical-align: middle;fill: #ff5f40;overflow: hidden;" viewBox="0 0 1024 1024" version="1.1" xmlns="http://www.w3.org/2000/svg"><path d="M512 85.333333a426.666667 426.666667 0 1 0 426.666667 426.666667A426.666667 426.666667 0 0 0 512 85.333333z m68.266667 384a10.666667 10.666667 0 0 1 8.96 5.12 10.666667 10.666667 0 0 1 0 10.24l-26.026667 52.48a32.426667 32.426667 0 0 1-28.586667 17.493334H380.586667A139.093333 139.093333 0 0 0 512 650.666667a136.96 136.96 0 0 0 85.333333-28.586667 21.333333 21.333333 0 0 1 28.16 2.133333l22.613334 23.04a19.626667 19.626667 0 0 1 6.4 16.213334 22.186667 22.186667 0 0 1-8.106667 15.36A213.333333 213.333333 0 0 1 302.933333 554.666667h-25.6a21.333333 21.333333 0 0 1-21.333333-21.333334v-42.666666a21.333333 21.333333 0 0 1 21.333333-21.333334h25.6a213.333333 213.333333 0 0 1 341.333334-124.16 22.186667 22.186667 0 0 1 8.106666 15.36 19.626667 19.626667 0 0 1-6.4 16.213334l-22.613333 23.04a21.333333 21.333333 0 0 1-28.16 2.133333 136.96 136.96 0 0 0-85.333333-28.586667A139.093333 139.093333 0 0 0 380.586667 469.333333z"  /></svg>