<svg class="svg-icon" style="width: 1.0107421875em; height: 1em;vertical-align: middle;fill: currentColor;overflow: hidden;" viewBox="0 0 1035 1024" version="1.1" xmlns="http://www.w3.org/2000/svg"><path d="M727.504752 993.404915l0-103.786594c-38.576517-0.758978-55.962465-6.386849-69.135113-21.563976-11.914982-13.727285-1.087382-35.595339 8.464308-54.888463 3.108891-6.283462 6.319952-12.796807 7.094742-16.088145-0.82101-3.97612-15.689195-15.801095-30.626709-23.710765l-10.8276-5.727608 36.579335-41.808255c36.305665-160.347485 140.103206-172.868189 171.181166-172.868189 62.006314 0 116.02025 39.128722 131.351849 95.143489 29.783805 108.830636-69.146059 200.260728-90.105529 218.139282l0 72.038447-1.024134 2.049484c-16.528449 33.07271-121.155514 48.767986-141.964162 51.581313L727.504752 993.404915zM662.913777 762.276649c14.733174 9.158821 33.382869 24.051332 29.890841 39.163995-1.262531 5.500158-4.666985 12.368666-8.6054 20.314825-3.62339 7.331922-14.649249 29.617171-11.194926 33.601805 8.617563 9.920232 20.912034 14.966706 64.18716 14.966706l9.692782 0 0 100.768927c45.162841-7.106905 103.899711-22.037121 115.216268-37.750642l0-76.302833 3.648933-2.902118c1.170091-0.935343 116.298785-94.371132 87.143812-200.906589-13.021825-47.623438-59.358405-80.884676-112.655934-80.884676-73.612353 0-130.738828 59.849795-152.797843 160.085978l-0.527879 2.42654L662.913777 762.276649z"  /><path d="M313.072349 940.534312l-10.993018-1.492413c-20.806215-2.813327-125.438145-18.50982-141.967811-51.554555l-1.020485-2.059214 0-72.037231c-20.958253-17.877338-119.885686-109.311079-90.106746-218.153878 15.332815-56.014767 69.349183-95.142273 131.356714-95.142273 31.076744 0 134.875502 12.517056 171.177517 172.870622l36.578118 41.816769-10.822735 5.727608c-14.941163 7.893858-29.805699 19.721265-30.57684 24.314055 0.71884 2.69048 3.938415 9.198959 7.057036 15.479989 9.537094 19.29434 20.364694 41.166043 8.449712 54.893328-13.155619 15.168613-30.559812 20.794051-69.131464 21.550597L313.072349 940.534312zM178.470518 880.482609c11.332369 15.709872 70.059509 30.647386 115.219917 37.742128l0-100.772576 9.689133 0c43.281208 0 55.57203-5.033095 64.190809-14.949678 3.457972-3.9895-7.570319-26.274748-11.193709-33.590859-3.938415-7.961971-7.344085-14.837777-8.606616-20.3428-3.493245-15.113879 15.15645-29.990578 29.895706-39.151832l-24.001463-27.433893-0.530312-2.420459c-22.056582-100.241048-79.179408-160.087194-152.792978-160.087194-53.302393 0-99.635325 33.258806-112.658366 80.881027-29.209707 106.749528 85.968856 199.987058 87.129216 200.909021l3.657447 2.914281L178.469301 880.482609z"  /><path d="M304.341669 526.565323l0-111.704779-10.727862 0c-45.739372 0-82.952405-37.214249-82.952405-82.942674L210.661402 103.706318c0-45.729642 37.211816-82.939025 82.952405-82.939025l322.951226 0c45.738156 0 82.954837 37.209384 82.954837 82.939025l0 228.211553c0 45.728425-37.216682 82.942674-82.954837 82.942674L432.868028 414.860545 304.341669 526.565323zM293.612591 40.146775c-35.054081 0-63.571707 28.517626-63.571707 63.558327l0 228.211553c0 35.043134 28.517626 63.559543 63.571707 63.559543l30.107344 0 0 88.568112 101.906178-88.568112 190.936488 0c35.052864 0 63.572923-28.517626 63.572923-63.559543L680.135524 103.706318c0-35.040701-28.518842-63.558327-63.572923-63.558327L293.612591 40.147991z"  /><path d="M682.278663 645.016978l-128.515412-111.71086-121.24917 0c-29.248629 0-56.693468-15.77312-71.59571-41.175774-2.712373-4.613467-1.172524-10.560011 3.445809-13.257789 4.618333-2.739132 10.549065-1.165226 13.262654 3.443376 11.444269 19.493815 32.475502 31.609488 54.887247 31.609488l128.491086 0 101.894015 88.56568 0-88.56568 92.562477 0c35.056513 0 63.572923-28.51641 63.572923-63.572923L819.034582 222.154324c0-35.041918-28.515193-63.558327-63.572923-63.558327l-36.564739 0c-5.350552 0-9.691565-4.341014-9.691565-9.691565 0-5.349335 4.339797-9.692782 9.691565-9.692782l36.564739 0c45.743021 0 82.95727 37.214249 82.95727 82.941458l0 228.198173c0 45.743021-37.214249 82.953621-82.95727 82.953621l-73.182995 0L682.278663 645.016978z"  /><path d="M343.64554 263.035751c-27.015482 0-49.000302-21.978738-49.000302-48.996653 0-27.014266 21.983604-48.98449 49.000302-48.98449 27.014266 0 48.991788 21.970224 48.991788 48.98449C392.638544 241.057012 370.659806 263.035751 343.64554 263.035751zM343.64554 184.435306c-16.327758 0-29.615955 13.276034-29.615955 29.603791 0 16.326541 13.288197 29.613522 29.615955 29.613522s29.614738-13.28698 29.614738-29.613522C373.260279 197.71134 359.974514 184.435306 343.64554 184.435306z"  /><path d="M455.087596 263.035751c-27.013049 0-48.991788-21.978738-48.991788-48.996653 0-27.014266 21.978738-48.98449 48.991788-48.98449 27.016698 0 49.000302 21.970224 49.000302 48.98449C504.086681 241.057012 482.104294 263.035751 455.087596 263.035751zM455.087596 184.435306c-16.325325 0-29.613522 13.276034-29.613522 29.603791 0 16.326541 13.288197 29.613522 29.613522 29.613522 16.328974 0 29.615955-13.28698 29.615955-29.613522C484.702334 197.71134 471.41657 184.435306 455.087596 184.435306z"  /><path d="M566.532084 263.035751c-27.014266 0-48.99422-21.978738-48.99422-48.996653 0-27.014266 21.979955-48.98449 48.99422-48.98449 27.016698 0 48.996653 21.970224 48.996653 48.98449C615.529953 241.057012 593.548782 263.035751 566.532084 263.035751zM566.532084 184.435306c-16.328974 0-29.612306 13.276034-29.612306 29.603791 0 16.326541 13.283332 29.613522 29.612306 29.613522 16.326541 0 29.618387-13.28698 29.618387-29.613522C596.150471 197.71134 582.858625 184.435306 566.532084 184.435306z"  /></svg>