<svg width="30" height="24" viewBox="0 0 30 24" fill="none" xmlns="http://www.w3.org/2000/svg">
<g clip-path="url(#clip0_281_985)">
<path d="M24 9.41538V9.23077C24 4.06154 19.9385 0 14.7692 0C10.1538 0 6.27692 3.32308 5.72308 7.93846C2.4 9.04615 0 12 0 15.6923C0 20.3077 3.69231 24 8.30769 24C11.4462 24 19.2 24 22.1538 24C26.2154 24 29.5385 20.6769 29.5385 16.6154C29.5385 13.1077 27.1385 10.3385 24 9.41538Z" fill="#717171"/>
<path d="M16.6153 14.7694V20.3078H12.923V14.7694H7.38452L14.7691 7.38477L22.1537 14.7694H16.6153Z" fill="white"/>
</g>
<defs>
<clipPath id="clip0_281_985">
<rect width="29.5385" height="24" fill="white"/>
</clipPath>
</defs>
</svg>
