<svg xmlns="http://www.w3.org/2000/svg" height="20" viewBox="0 -960 960 960" width="20"><path d="M480.418-492.5q22.813 0 38.832-16.245 16.019-16.245 16.019-39.058 0-22.812-16.325-38.832-16.325-16.019-39.25-16.019t-38.752 16.325q-15.827 16.326-15.827 39.25 0 22.925 16.246 38.752 16.245 15.827 39.057 15.827ZM480-179.769q108.247-93.092 174.508-192.2 66.261-99.108 66.261-172.454 0-104.654-67.458-174.904t-173.384-70.25q-105.927 0-173.312 70.25-67.384 70.25-67.384 174.904 0 73.346 66.261 172.454T480-179.769Zm0 38.385q-134.398-118.07-202.045-218.689-67.648-100.619-67.648-184.163 0-108.047 73.366-190.771 73.365-82.724 195.827-82.724t196.327 82.724q73.866 82.724 73.866 190.771 0 83.544-67.135 183.717Q615.423-260.346 480-141.384Zm0-406.001Z"/></svg>