<svg width="52" height="48" viewBox="0 0 52 48" fill="none" xmlns="http://www.w3.org/2000/svg">
<path fill-rule="evenodd" clip-rule="evenodd" d="M6.58049 37.5522C2.85973 34.2509 1 29.7514 1 24.0551C1 18.3774 2.85973 13.8886 6.58049 10.5901C6.92424 10.2855 7.28372 9.9933 7.65892 9.71355C7.84831 9.57238 8.0417 9.43433 8.2391 9.29948C12.4345 6.43347 18.4396 5 26.2535 5C35.1662 5 41.7256 6.86381 45.9318 10.5901C49.6512 13.8886 51.5122 18.3774 51.5122 24.0551C51.5122 29.7514 49.6512 34.2509 45.9318 37.5522C44.4183 38.8921 42.5998 39.9906 40.477 40.8483C38.5077 41.644 36.276 42.2321 33.7822 42.6127C31.4936 42.9621 28.9839 43.1368 26.2535 43.1368C23.5238 43.1368 21.015 42.9621 18.7268 42.6127C14.1567 41.915 10.4673 40.52 7.65892 38.428C7.28372 38.1484 6.92424 37.8566 6.58049 37.5522ZM23.2919 13.1201C23.509 12.8756 23.856 12.7959 24.1569 12.9155C24.4593 13.0364 24.6583 13.3339 24.6583 13.666V14.8726V18.9679C24.6583 19.1724 24.5823 19.369 24.4474 19.5165L20.2215 24.1395L24.4463 28.7611C24.5823 28.9113 24.6583 29.1078 24.6583 29.3123V33.2436V34.6128C24.6583 34.9449 24.4593 35.2439 24.1569 35.3649C24.0639 35.402 23.9658 35.4193 23.8703 35.4193C23.6545 35.4193 23.4436 35.3276 23.2919 35.1615L20.4681 32.0347L16.9798 28.1719L13.8336 24.6882C13.5548 24.3786 13.5548 23.9029 13.8336 23.5935L16.8486 20.2548L20.7393 15.9465L23.2919 13.1201ZM28.3123 12.9155C28.6133 12.7959 28.9586 12.8756 29.1773 13.1201L31.7036 15.9175L35.6478 20.285L38.6355 23.5935C38.9143 23.9029 38.9143 24.3772 38.6355 24.6868L35.5196 28.1371L31.9692 32.0686L29.1773 35.1601C29.0267 35.3276 28.8147 35.4193 28.5989 35.4193C28.5032 35.4193 28.405 35.402 28.3123 35.3649C28.0099 35.2439 27.8109 34.9449 27.8109 34.6128V33.2472V29.3123C27.8109 29.1078 27.8869 28.9113 28.0229 28.7611L32.2489 24.1395L28.0243 19.5165C27.8869 19.369 27.8109 19.1724 27.8109 18.9679V14.8689V13.666C27.8109 13.3339 28.0099 13.0364 28.3123 12.9155Z" fill="#24A19C"/>
</svg>
