<?xml version="1.0" encoding="iso-8859-1"?>
<!-- Uploaded to: SVG Repo, www.svgrepo.com, Generator: SVG Repo Mixer Tools -->
<svg fill="#717171" height="800px" width="800px" version="1.1" id="Capa_1" xmlns="http://www.w3.org/2000/svg" xmlns:xlink="http://www.w3.org/1999/xlink" 
	 viewBox="0 0 482.874 482.874" xml:space="preserve">
<g>
	<path d="M412.149,70.761c-94.3-94.3-247.1-94.3-341.4,0c-90.8,90.7-94.2,235.8-10.2,330.6l2.5,2c-9.1,19.7-24.8,44-49.7,56.2
		c-8.2,4-6.3,16.3,2.7,17.7c27.2,4.3,66.3-0.5,102.6-28l0.5,0.4c92.5,54.4,213.6,41.9,293-37.5
		C506.449,317.861,506.449,165.061,412.149,70.761z M342.149,300.761c0,3-2.4,5.4-5.4,5.4h-131v17.4c0,3.2-3.5,5.2-6.2,3.5
		l-56.8-35.4c-2.6-1.6-2.6-5.3,0-6.9l56.8-35.4c2.7-1.7,6.2,0.3,6.2,3.5v17.4h131c3,0,5.4,2.4,5.4,5.4V300.761z M340.249,198.161
		l-56.8,35.4c-2.7,1.7-6.2-0.3-6.2-3.5v-17.4h-131c-3,0-5.4-2.4-5.4-5.4v-25.1c0-3,2.4-5.4,5.4-5.4h131v-17.4c0-3.2,3.5-5.2,6.2-3.5
		l56.8,35.4C342.749,192.861,342.749,196.561,340.249,198.161z"/>
</g>
</svg>